<?xml version="1.0" encoding="UTF-8" standalone="no"?>
<!-- Created with Inkscape (http://www.inkscape.org/) -->

<svg
   version="1.1"
   id="svg1"
   width="164.47168"
   height="190.01587"
   viewBox="0 0 164.47168 190.01587"
   xmlns="http://www.w3.org/2000/svg"
   xmlns:svg="http://www.w3.org/2000/svg">
  <defs
     id="defs1" />
  <g
     id="layer1"
     transform="translate(-3582.8713,-1776.3967)">
    <path
       style="fill:#f0ca8f;fill-opacity:1;stroke:#5c4945;stroke-width:8;stroke-dasharray:none;stroke-opacity:1"
       d="m 3664.8394,1793.8161 c -24.0764,1.1935 -85.2297,77.4447 -77.2073,94.253 7.9195,16.5927 53.1427,-3.0081 53.1427,-3.0081 0,0 -16.7525,60.3008 -6.0161,70.1885 10.7364,9.8877 58.7316,9.5248 68.183,-1.0027 9.4514,-10.5275 -12.7413,-70.7255 -12.7413,-70.7255 0,0 43.3894,16.5115 50.8436,1.5397 9.049,-18.1749 -52.1282,-92.4384 -76.2046,-91.2449 z"
       id="path1" />
    <path
       style="fill:#f3e2ba;fill-opacity:1;stroke:#5c4945;stroke-width:8;stroke-dasharray:none;stroke-opacity:1"
       d="m 3666.2076,1780.4141 c -24.0764,1.1935 -85.2297,77.4447 -77.2073,94.253 7.9195,16.5927 53.1427,-3.0081 53.1427,-3.0081 0,0 -16.7525,60.3008 -6.0161,70.1885 10.7364,9.8877 58.7316,9.5248 68.183,-1.0027 9.4514,-10.5275 -12.7413,-70.7255 -12.7413,-70.7255 0,0 43.3894,16.5115 50.8436,1.5397 9.049,-18.1749 -52.1282,-92.4384 -76.2046,-91.2449 z"
       id="path1-8" />
  </g>
</svg>
