<?xml version="1.0" encoding="UTF-8"?>
<svg id="Layer_2" data-name="Layer 2" xmlns="http://www.w3.org/2000/svg" viewBox="0 0 130.78 71.74">
  <defs>
    <style>
      .cls-1 {
        fill: none;
        stroke: #5c4945;
        stroke-miterlimit: 10;
        stroke-width: 2px;
      }

      .cls-2 {
        fill: #ebe9db;
      }

      .cls-3 {
        fill: #f0ca8f;
      }
    </style>
  </defs>
  <g id="Layer_3" data-name="Layer 3">
    <path class="cls-2" d="M.14,7.42c-.27,22.81-.06,64.31-.06,64.31l129.7-.6s-20.38-20.26-30.29-25.83c-9.91-5.57-21.62-7.88-32.9-6.48-5,.62-10.08,1.94-14.99.81-2.46-.56-4.74-1.72-6.87-3.07-4.06-2.57-7.66-5.88-10.55-9.71-2.56-3.39-4.63-7.22-7.85-9.99-3.76-3.23-8.7-4.66-13.48-6-2.65-.74-9.29-1.49-12.71-3.46Z"/>
    <g>
      <path class="cls-3" d="M.08,1.6c18.4,0,39.42,15.36,44.82,32.87,3.6-2.85,8.06-4.39,12.54-5.41,22.5-5.1,44.99-.59,60.34,16.64,5.08,5.7,12.28,17.81,11.99,25.43h-18.43c-.55-9.61-8.24-19.91-16.91-24.1-17.58-8.5-39.25-4.86-55.9,5.34-.37-3-1.83-5.74-3.27-8.39-3.54-6.49-7.69-11.77-12.81-17.1C17.34,21.55,7.14,17.01.18,16.43L.08,1.6Z"/>
      <path class="cls-1" d="M111.35,71.14c0-9.7-8.24-20.51-16.91-24.7-17.58-8.5-39.25-4.86-55.9,5.34-.37-3-1.83-5.74-3.27-8.39-3.54-6.49-7.77-11.76-12.89-17.1C17.25,20.95,7.33,16.02.08,16.02"/>
      <path class="cls-1" d="M.08,1c17.89,0,39.42,15.36,44.82,32.87,3.6-2.85,8.06-4.39,12.54-5.41,22.5-5.1,44.99-.59,60.34,16.64,5.08,5.7,11.99,18.46,11.99,26.03"/>
    </g>
  </g>
</svg>