<?xml version="1.0" encoding="UTF-8"?>
<svg id="Layer_2" data-name="Layer 2" xmlns="http://www.w3.org/2000/svg" viewBox="0 0 133.72 71.74">
  <defs>
    <style>
      .cls-1 {
        fill: none;
        stroke: #5c4945;
        stroke-miterlimit: 10;
        stroke-width: 2px;
      }

      .cls-2 {
        fill: #ebe9db;
      }

      .cls-3 {
        fill: #f0ca8f;
      }
    </style>
  </defs>
  <g id="Layer_3" data-name="Layer 3">
    <g>
      <path class="cls-2" d="M.14,7.42c-.27,22.81-.06,64.31-.06,64.31l132.64-.6s-51.91-37.82-66.36-45.82C56.24,19.71,3.63,9.4.14,7.42Z"/>
      <path class="cls-3" d="M.08,1.6c18.82,0,59.84,7.36,64.19,9.08,17.88,7.07,40.48,17.8,56.18,35.03,5.19,5.7,12.56,17.81,12.27,25.43l-19.4.09c-.56-9.61-9.49-20.77-17.01-25.98-16.29-11.3-25.25-14.07-32.78-17.82C56.79,24.08,7.3,17.01.19,16.43L.08,1.6Z"/>
      <path class="cls-1" d="M113.31,71.23c0-9.7-10.59-27.6-45.53-42.17C46.24,20.07,7.5,16.02.08,16.02"/>
      <path class="cls-1" d="M.08,1c18.3,0,46.09,3.55,64.19,9.68,14.91,5.05,40.48,17.2,56.18,34.43,5.19,5.7,12.27,18.46,12.27,26.03"/>
    </g>
  </g>
</svg>