<?xml version="1.0" encoding="UTF-8"?>
<svg id="Layer_2" data-name="Layer 2" xmlns="http://www.w3.org/2000/svg" viewBox="0 0 1297.8 191.58">
  <defs>
    <style>
      .cls-1 {
        stroke: #5c4945;
      }

      .cls-1, .cls-2 {
        fill: none;
        stroke-miterlimit: 10;
        stroke-width: 2px;
      }

      .cls-3 {
        fill: #5665a5;
      }

      .cls-2 {
        stroke: #ebe9db;
      }

      .cls-4 {
        fill: #b2bddb;
      }

      .cls-5 {
        fill: #ebe9db;
      }

      .cls-6 {
        fill: #9ca8c9;
      }
    </style>
  </defs>
  <g id="Layer_4" data-name="Layer 4">
    <path class="cls-3" d="M1297.74,191.58H.04v-96.04s117.85-31.66,154.72-21.84c153.41,40.86,633.62,5.91,633.62,5.91,0,0,178.98-11.71,235.87-9.71,70.57,2.47,273.49,25.65,273.49,25.65v96.04Z"/>
    <g>
      <g>
        <path class="cls-4" d="M1297.74,159.18c-24.93.67-45.02,3.23-68.34-7.3-17.46-7.89-27.05-27.58-44.09-36.33-29.51-15.15-63.51,8.28-96.48,11.89-6.59.73-13.87.43-18.98-3.81-4.69-3.88-6.48-10.15-9.06-15.67-9.54-20.44-33.88-32.79-56.02-28.42-17.69,3.49-32.04,15.9-47.85,24.56-40.22,22.03-104.5,30.03-134.01,14.63-21.3-11.1-37.37-16.64-57.07-11.31-19.93,5.38-31.34,23.07-47.35,36.12-16,13.06-44.73,19.58-62.76,9.51-18.11-10.12-7.6-17.65-18.74-30.48-6.24-7.18-12.49-10.69-20.12-8.21-9.05,2.94-12.79,7.65-15.64,13.76-4.1,8.78-21.63,25.01-39.74,28.12-26.53,4.55-34.3,4-51.7-7.38-6.97-4.56-18.07-10.03-26.46-4.81-8.38,5.22-9.36,9.83-10.81,19.6-.57,3.89-4.31,10.08-19.05,14.26-14,3.98-42.08,5.96-58.16,2.24-17.07-3.96-35.29-8.57-46.97-21.64-6.09-6.8-8.12-10.64-15.74-15.67-13.57-8.94-29.51-.11-44.48,6.22-15.42,6.53-36.83,10.89-54.35,5.2-15.93-5.17-24.51-12.76-25.37-21.4-.79-7.98,4.56-16.68-9.41-30.65-13.96-13.96-46.55-14.48-65.27,6.55-7.74,8.7-25.83,23.57-42.23,31.14-20.33,9.39-48.45,25.79-67.19,23.55-9.57-1.14-18.54-4.34-24.03-4.34-.07-.01-.22-.05-.22-.05L.03,86.03c9.72.59,20.85,2.42,22.26,2.68,21.98,4.01,27.38-2.46,46.3-14.34,15.55-9.78,27.79-24.06,42.95-34.42,19.15-13.09,42.79-19.46,65.92-17.76,9.7.72,19.56,2.92,27.54,8.48,14,9.75,19.79,27.89,32.67,39.07,15.15,13.14,37.54,14.33,57.09,9.88,19.55-4.44,37.67-13.71,56.89-19.41,14.47-4.28,29.53-6.53,44.62-6.65,10.31-.08,21.36,1.11,29.25,7.74,6.4,5.38,9.73,13.52,15.07,19.97,5.33,6.44,21.1,8.05,27.51,8.33,22.93,1.03,38.51-4.6,58.99-16.23,20.48-11.64,38.91-26.8,60.08-37.14,21.16-10.34,46.68-15.44,68.14-5.73,13.13,5.93,23.56,16.85,36.83,22.46,19.9,8.41,42.78,3.62,63.33-3.08,20.54-6.71,41.23-15.33,62.82-14.26,22.5,1.12,43.19,12.69,65.45,16.21,23.54,3.72,48.46-2.1,67.93-15.86,9.68-6.85,17.98-15.5,27.7-22.29,9.72-6.78,21.59-11.73,32.94-10.98,21.33-3.32,43.4-1.77,64.05,4.5,13.07,3.96,27.14,11.67,29.78,25.07,1.93,9.8-2.62,21.35,3.58,29.19,3.85,4.87,10.63,6.32,16.84,6.38,28.65.31,54.42-21.24,83.04-19.75,2.91.15,5.89.57,8.42,2.01,8.37,4.78,1.26,14.57,8.06,21.4,6.06,6.07,21,3.83,29.39,2.98,11.52-1.17,26.93,11.61,42.25,11.57"/>
        <path class="cls-1" d="M.03,86.03c8.32.21,16.64,2.17,18.05,2.43,21.98,4.01,31.59-2.2,50.51-14.08,15.55-9.78,27.79-24.06,42.95-34.42,19.15-13.09,42.79-19.46,65.92-17.76,9.7.72,19.56,2.92,27.54,8.48,14,9.75,19.79,27.89,32.67,39.07,15.15,13.14,37.54,14.33,57.09,9.88,19.55-4.44,37.67-13.71,56.89-19.41,14.47-4.28,29.53-6.53,44.62-6.65,10.31-.08,21.36,1.11,29.25,7.74,6.4,5.38,9.73,13.52,15.07,19.97,5.33,6.44,21.1,8.05,27.51,8.33,22.93,1.03,38.51-4.6,58.99-16.23,20.48-11.64,38.91-26.8,60.08-37.14,21.16-10.34,46.68-15.44,68.14-5.73,13.13,5.93,23.56,16.85,36.83,22.46,19.9,8.41,42.78,3.62,63.33-3.08,20.54-6.71,41.23-15.33,62.82-14.26,22.5,1.12,43.19,12.69,65.45,16.21,23.54,3.72,48.46-2.1,67.93-15.86,9.68-6.85,17.98-15.5,27.7-22.29,9.72-6.78,21.59-11.73,32.94-10.98,21.33-3.32,43.4-1.77,64.05,4.5,13.07,3.96,27.14,11.67,29.78,25.07,1.93,9.8-2.62,21.35,3.58,29.19,3.85,4.87,10.63,6.32,16.84,6.38,28.65.31,54.42-21.24,83.04-19.75,2.91.15,5.89.57,8.42,2.01,8.37,4.78,1.26,14.57,8.06,21.4,6.06,6.07,21,3.83,29.39,2.98,11.52-1.17,27.19,11.99,42.25,11.57"/>
        <path class="cls-1" d="M1297.74,159.18c-27.49.54-45.02,3.23-68.34-7.3-17.46-7.89-27.05-27.58-44.09-36.33-29.51-15.15-63.51,8.28-96.48,11.89-6.59.73-13.87.43-18.98-3.81-4.69-3.88-6.48-10.15-9.06-15.67-9.54-20.44-33.88-32.79-56.02-28.42-17.69,3.49-32.04,15.9-47.85,24.56-40.22,22.03-104.5,30.03-134.01,14.63-21.3-11.1-37.37-16.64-57.07-11.31-19.93,5.38-31.34,23.07-47.35,36.12-16,13.06-44.73,19.58-62.76,9.51-18.11-10.12-7.6-17.65-18.74-30.48-6.24-7.18-12.49-10.69-20.12-8.21-9.05,2.94-12.79,7.65-15.64,13.76-4.1,8.78-21.63,25.01-39.74,28.12-26.53,4.55-34.3,4-51.7-7.38-6.97-4.56-18.07-10.03-26.46-4.81-8.38,5.22-9.36,9.83-10.81,19.6-.57,3.89-4.31,10.08-19.05,14.26-14,3.98-42.08,5.96-58.16,2.24-17.07-3.96-35.29-8.57-46.97-21.64-6.09-6.8-8.12-10.64-15.74-15.67-13.57-8.94-29.51-.11-44.48,6.22-15.42,6.53-36.83,10.89-54.35,5.2-15.93-5.17-24.51-12.76-25.37-21.4-.79-7.98,4.56-16.68-9.41-30.65-13.96-13.96-46.55-14.48-65.27,6.55-7.74,8.7-26.37,22.5-42.23,31.14-24.4,13.27-39.78,20.44-62.14,23.3-12.96,1.66-11.17-4.72-29.3-4.14"/>
      </g>
      <g>
        <path class="cls-5" d="M32.41,105.74c1.93,0,1.93-3,0-3s-1.93,3,0,3h0Z"/>
        <path class="cls-5" d="M54.21,89.99c1.93,0,1.93-3,0-3s-1.93,3,0,3h0Z"/>
        <path class="cls-5" d="M6.97,100.89c1.93,0,1.93-3,0-3s-1.93,3,0,3h0Z"/>
        <path class="cls-5" d="M88.13,80.3c1.93,0,1.93-3,0-3s-1.93,3,0,3h0Z"/>
        <path class="cls-5" d="M113.57,51.23c1.93,0,1.93-3,0-3s-1.93,3,0,3h0Z"/>
        <path class="cls-5" d="M140.22,39.11c1.93,0,1.93-3,0-3s-1.93,3,0,3h0Z"/>
        <path class="cls-5" d="M178.98,31.85c1.93,0,1.93-3,0-3s-1.93,3,0,3h0Z"/>
        <path class="cls-5" d="M244.4,83.93c1.93,0,1.93-3,0-3s-1.93,3,0,3h0Z"/>
        <path class="cls-5" d="M277.1,103.32c1.93,0,1.93-3,0-3s-1.93,3,0,3h0Z"/>
        <path class="cls-5" d="M313.44,86.36c1.93,0,1.93-3,0-3s-1.93,3,0,3h0Z"/>
        <path class="cls-5" d="M411.56,68.19c1.93,0,1.93-3,0-3s-1.93,3,0,3h0Z"/>
        <path class="cls-5" d="M397.03,155.4c1.93,0,1.93-3,0-3s-1.93,3,0,3h0Z"/>
        <path class="cls-5" d="M363.11,138.44c1.93,0,1.93-3,0-3s-1.93,3,0,3h0Z"/>
        <path class="cls-5" d="M367.95,161.46c1.93,0,1.93-3,0-3s-1.93,3,0,3h0Z"/>
        <path class="cls-5" d="M245.61,146.92c1.93,0,1.93-3,0-3s-1.93,3,0,3h0Z"/>
        <path class="cls-5" d="M154.76,75.45c1.93,0,1.93-3,0-3s-1.93,3,0,3h0Z"/>
        <path class="cls-5" d="M16.66,156.62c1.93,0,1.93-3,0-3s-1.93,3,0,3h0Z"/>
        <path class="cls-5" d="M452.75,168.73c1.93,0,1.93-3,0-3s-1.93,3,0,3h0Z"/>
        <path class="cls-5" d="M548.45,139.66c1.93,0,1.93-3,0-3s-1.93,3,0,3h0Z"/>
        <path class="cls-5" d="M607.8,48.8c1.93,0,1.93-3,0-3s-1.93,3,0,3h0Z"/>
        <path class="cls-5" d="M673.22,64.55c1.93,0,1.93-3,0-3s-1.93,3,0,3h0Z"/>
        <path class="cls-5" d="M684.12,81.51c1.93,0,1.93-3,0-3s-1.93,3,0,3h0Z"/>
        <path class="cls-5" d="M657.47,40.32c1.93,0,1.93-3,0-3s-1.93,3,0,3h0Z"/>
        <path class="cls-5" d="M669.58,154.19c1.93,0,1.93-3,0-3s-1.93,3,0,3h0Z"/>
        <path class="cls-5" d="M801.62,104.53c1.93,0,1.93-3,0-3s-1.93,3,0,3h0Z"/>
        <path class="cls-5" d="M839.17,52.44c1.93,0,1.93-3,0-3s-1.93,3,0,3h0Z"/>
        <path class="cls-5" d="M891.71,62.42c1.93,0,1.93-3,0-3s-1.93,3,0,3h0Z"/>
        <path class="cls-5" d="M918.87,58.13c1.93,0,1.93-3,0-3s-1.93,3,0,3h0Z"/>
        <path class="cls-5" d="M1038.96,15.24c1.93,0,1.93-3,0-3s-1.93,3,0,3h0Z"/>
        <path class="cls-5" d="M998.93,15.24c1.93,0,1.93-3,0-3s-1.93,3,0,3h0Z"/>
        <path class="cls-5" d="M1058.98,78.15c1.93,0,1.93-3,0-3s-1.93,3,0,3h0Z"/>
        <path class="cls-5" d="M1070.42,102.45c1.93,0,1.93-3,0-3s-1.93,3,0,3h0Z"/>
        <path class="cls-5" d="M1077.56,109.6c1.93,0,1.93-3,0-3s-1.93,3,0,3h0Z"/>
        <path class="cls-5" d="M1097.58,62.42c1.93,0,1.93-3,0-3s-1.93,3,0,3h0Z"/>
        <path class="cls-5" d="M1091.86,23.82c1.93,0,1.93-3,0-3s-1.93,3,0,3h0Z"/>
        <path class="cls-5" d="M1213.38,58.13c1.93,0,1.93-3,0-3s-1.93,3,0,3h0Z"/>
        <path class="cls-5" d="M1214.81,86.73c1.93,0,1.93-3,0-3s-1.93,3,0,3h0Z"/>
        <path class="cls-5" d="M1234.83,91.02c1.93,0,1.93-3,0-3s-1.93,3,0,3h0Z"/>
        <path class="cls-5" d="M1276.28,86.07c1.93,0,1.93-3,0-3s-1.93,3,0,3h0Z"/>
        <path class="cls-5" d="M1256.86,148.66c1.93,0,1.93-3,0-3s-1.93,3,0,3h0Z"/>
        <path class="cls-5" d="M42.75,106.1c.64,0,.64-1,0-1s-.64,1,0,1h0Z"/>
        <path class="cls-5" d="M46.3,103.97c.64,0,.64-1,0-1s-.64,1,0,1h0Z"/>
        <path class="cls-5" d="M45.23,101.84c.64,0,.64-1,0-1s-.64,1,0,1h0Z"/>
        <path class="cls-5" d="M39.2,98.29c.64,0,.64-1,0-1s-.64,1,0,1h0Z"/>
        <path class="cls-5" d="M24.64,114.62c.64,0,.64-1,0-1s-.64,1,0,1h0Z"/>
        <path class="cls-5" d="M23.22,99.36c.64,0,.64-1,0-1s-.64,1,0,1h0Z"/>
        <path class="cls-5" d="M43.46,150.13c.64,0,.64-1,0-1s-.64,1,0,1h0Z"/>
        <path class="cls-5" d="M33.16,151.91c.64,0,.64-1,0-1s-.64,1,0,1h0Z"/>
        <path class="cls-5" d="M18.6,146.23c.64,0,.64-1,0-1s-.64,1,0,1h0Z"/>
        <path class="cls-5" d="M15.76,155.1c.64,0,.64-1,0-1s-.64,1,0,1h0Z"/>
        <path class="cls-5" d="M44.88,152.97c.64,0,.64-1,0-1s-.64,1,0,1h0Z"/>
        <path class="cls-5" d="M66.18,146.58c.64,0,.64-1,0-1s-.64,1,0,1h0Z"/>
        <path class="cls-5" d="M75.77,143.03c.64,0,.64-1,0-1s-.64,1,0,1h0Z"/>
        <path class="cls-5" d="M80.39,133.8c.64,0,.64-1,0-1s-.64,1,0,1h0Z"/>
        <path class="cls-5" d="M91.04,133.8c.64,0,.64-1,0-1s-.64,1,0,1h0Z"/>
        <path class="cls-5" d="M101.69,125.63c.64,0,.64-1,0-1s-.64,1,0,1h0Z"/>
        <path class="cls-5" d="M112.34,113.56c.64,0,.64-1,0-1s-.64,1,0,1h0Z"/>
        <path class="cls-5" d="M74,85.51c.64,0,.64-1,0-1s-.64,1,0,1h0Z"/>
        <path class="cls-5" d="M92.1,72.73c.64,0,.64-1,0-1s-.64,1,0,1h0Z"/>
        <path class="cls-5" d="M94.59,62.07c.64,0,.64-1,0-1s-.64,1,0,1h0Z"/>
        <path class="cls-5" d="M101.69,57.81c.64,0,.64-1,0-1s-.64,1,0,1h0Z"/>
        <path class="cls-5" d="M106.31,62.07c.64,0,.64-1,0-1s-.64,1,0,1h0Z"/>
        <path class="cls-5" d="M126.19,43.61c.64,0,.64-1,0-1s-.64,1,0,1h0Z"/>
        <path class="cls-5" d="M124.06,36.51c.64,0,.64-1,0-1s-.64,1,0,1h0Z"/>
        <path class="cls-5" d="M159.57,32.6c.64,0,.64-1,0-1s-.64,1,0,1h0Z"/>
        <path class="cls-5" d="M155.66,28.34c.64,0,.64-1,0-1s-.64,1,0,1h0Z"/>
        <path class="cls-5" d="M134.36,97.94c.64,0,.64-1,0-1s-.64,1,0,1h0Z"/>
        <path class="cls-5" d="M148.91,93.32c.64,0,.64-1,0-1s-.64,1,0,1h0Z"/>
        <path class="cls-5" d="M153.89,83.73c.64,0,.64-1,0-1s-.64,1,0,1h0Z"/>
        <path class="cls-5" d="M143.59,83.02c.64,0,.64-1,0-1s-.64,1,0,1h0Z"/>
        <path class="cls-5" d="M137.2,86.57c.64,0,.64-1,0-1s-.64,1,0,1h0Z"/>
        <path class="cls-5" d="M179.45,80.54c.64,0,.64-1,0-1s-.64,1,0,1h0Z"/>
        <path class="cls-5" d="M182.29,69.53c.64,0,.64-1,0-1s-.64,1,0,1h0Z"/>
        <path class="cls-5" d="M186.91,70.95c.64,0,.64-1,0-1s-.64,1,0,1h0Z"/>
        <path class="cls-5" d="M196.49,83.73c.64,0,.64-1,0-1s-.64,1,0,1h0Z"/>
        <path class="cls-5" d="M192.94,93.32c.64,0,.64-1,0-1s-.64,1,0,1h0Z"/>
        <path class="cls-5" d="M214.25,101.84c.64,0,.64-1,0-1s-.64,1,0,1h0Z"/>
        <path class="cls-5" d="M217.8,122.08c.64,0,.64-1,0-1s-.64,1,0,1h0Z"/>
        <path class="cls-5" d="M222.06,128.83c.64,0,.64-1,0-1s-.64,1,0,1h0Z"/>
        <path class="cls-5" d="M230.23,130.25c.64,0,.64-1,0-1s-.64,1,0,1h0Z"/>
        <path class="cls-5" d="M223.83,139.12c.64,0,.64-1,0-1s-.64,1,0,1h0Z"/>
        <path class="cls-5" d="M205.37,46.1c.64,0,.64-1,0-1s-.64,1,0,1h0Z"/>
        <path class="cls-5" d="M209.63,40.06c.64,0,.64-1,0-1s-.64,1,0,1h0Z"/>
        <path class="cls-5" d="M201.82,37.22c.64,0,.64-1,0-1s-.64,1,0,1h0Z"/>
        <path class="cls-5" d="M268.88,88.29c.64,0,.64-1,0-1s-.64,1,0,1h0Z"/>
        <path class="cls-5" d="M268.34,92.06c.64,0,.64-1,0-1s-.64,1,0,1h0Z"/>
        <path class="cls-5" d="M259.19,86.68c.64,0,.64-1,0-1s-.64,1,0,1h0Z"/>
        <path class="cls-5" d="M257.57,88.29c.64,0,.64-1,0-1s-.64,1,0,1h0Z"/>
        <path class="cls-5" d="M264.03,97.44c.64,0,.64-1,0-1s-.64,1,0,1h0Z"/>
        <path class="cls-5" d="M293.1,91.52c.64,0,.64-1,0-1s-.64,1,0,1h0Z"/>
        <path class="cls-5" d="M267.26,140.5c.64,0,.64-1,0-1s-.64,1,0,1h0Z"/>
        <path class="cls-5" d="M308.17,135.12c.64,0,.64-1,0-1s-.64,1,0,1h0Z"/>
        <path class="cls-5" d="M330.77,123.82c.64,0,.64-1,0-1s-.64,1,0,1h0Z"/>
        <path class="cls-5" d="M342.08,133.5c.64,0,.64-1,0-1s-.64,1,0,1h0Z"/>
        <path class="cls-5" d="M349.08,148.58c.64,0,.64-1,0-1s-.64,1,0,1h0Z"/>
        <path class="cls-5" d="M366.3,148.58c.64,0,.64-1,0-1s-.64,1,0,1h0Z"/>
        <path class="cls-5" d="M379.76,152.34c.64,0,.64-1,0-1s-.64,1,0,1h0Z"/>
        <path class="cls-5" d="M379.76,165.26c.64,0,.64-1,0-1s-.64,1,0,1h0Z"/>
        <path class="cls-5" d="M341.54,76.99c.64,0,.64-1,0-1s-.64,1,0,1h0Z"/>
        <path class="cls-5" d="M355,66.76c.64,0,.64-1,0-1s-.64,1,0,1h0Z"/>
        <path class="cls-5" d="M359.84,64.61c.64,0,.64-1,0-1s-.64,1,0,1h0Z"/>
        <path class="cls-5" d="M378.68,69.99c.64,0,.64-1,0-1s-.64,1,0,1h0Z"/>
        <path class="cls-5" d="M393.75,60.84c.64,0,.64-1,0-1s-.64,1,0,1h0Z"/>
        <path class="cls-5" d="M407.21,61.92c.64,0,.64-1,0-1s-.64,1,0,1h0Z"/>
        <path class="cls-5" d="M429.81,86.68c.64,0,.64-1,0-1s-.64,1,0,1h0Z"/>
        <path class="cls-5" d="M448.11,97.44c.64,0,.64-1,0-1s-.64,1,0,1h0Z"/>
        <path class="cls-5" d="M456.6,110.38c.64,0,.64-1,0-1s-.64,1,0,1h0Z"/>
        <path class="cls-5" d="M474.73,108.73c.64,0,.64-1,0-1s-.64,1,0,1h0Z"/>
        <path class="cls-5" d="M481.32,96.38c.64,0,.64-1,0-1s-.64,1,0,1h0Z"/>
        <path class="cls-5" d="M463.19,99.67c.64,0,.64-1,0-1s-.64,1,0,1h0Z"/>
        <path class="cls-5" d="M446.72,172.16c.64,0,.64-1,0-1s-.64,1,0,1h0Z"/>
        <path class="cls-5" d="M428.6,165.57c.64,0,.64-1,0-1s-.64,1,0,1h0Z"/>
        <path class="cls-5" d="M523.33,140.03c.64,0,.64-1,0-1s-.64,1,0,1h0Z"/>
        <path class="cls-5" d="M504.38,136.74c.64,0,.64-1,0-1s-.64,1,0,1h0Z"/>
        <path class="cls-5" d="M509.32,129.33c.64,0,.64-1,0-1s-.64,1,0,1h0Z"/>
        <path class="cls-5" d="M535.68,151.57c.64,0,.64-1,0-1s-.64,1,0,1h0Z"/>
        <path class="cls-5" d="M575.22,148.27c.64,0,.64-1,0-1s-.64,1,0,1h0Z"/>
        <path class="cls-5" d="M583.46,127.68c.64,0,.64-1,0-1s-.64,1,0,1h0Z"/>
        <path class="cls-5" d="M573.57,60.13c.64,0,.64-1,0-1s-.64,1,0,1h0Z"/>
        <path class="cls-5" d="M591.7,43.66c.64,0,.64-1,0-1s-.64,1,0,1h0Z"/>
        <path class="cls-5" d="M598.29,38.71c.64,0,.64-1,0-1s-.64,1,0,1h0Z"/>
        <path class="cls-5" d="M569.46,56.84c.64,0,.64-1,0-1s-.64,1,0,1h0Z"/>
        <path class="cls-5" d="M639.47,41.19c.64,0,.64-1,0-1s-.64,1,0,1h0Z"/>
        <path class="cls-5" d="M641.95,39.54c.64,0,.64-1,0-1s-.64,1,0,1h0Z"/>
        <path class="cls-5" d="M627.12,34.6c.64,0,.64-1,0-1s-.64,1,0,1h0Z"/>
        <path class="cls-5" d="M615.59,104.61c.64,0,.64-1,0-1s-.64,1,0,1h0Z"/>
        <path class="cls-5" d="M628.77,96.38c.64,0,.64-1,0-1s-.64,1,0,1h0Z"/>
        <path class="cls-5" d="M624.65,86.49c.64,0,.64-1,0-1s-.64,1,0,1h0Z"/>
        <path class="cls-5" d="M635.36,100.49c.64,0,.64-1,0-1s-.64,1,0,1h0Z"/>
        <path class="cls-5" d="M641.95,107.91c.64,0,.64-1,0-1s-.64,1,0,1h0Z"/>
        <path class="cls-5" d="M641.95,117.79c.64,0,.64-1,0-1s-.64,1,0,1h0Z"/>
        <path class="cls-5" d="M656.77,144.15c.64,0,.64-1,0-1s-.64,1,0,1h0Z"/>
        <path class="cls-5" d="M688.9,152.39c.64,0,.64-1,0-1s-.64,1,0,1h0Z"/>
        <path class="cls-5" d="M695.89,82.96c.64,0,.64-1,0-1s-.64,1,0,1h0Z"/>
        <path class="cls-5" d="M694.43,73.72c.64,0,.64-1,0-1s-.64,1,0,1h0Z"/>
        <path class="cls-5" d="M694.43,66.42c.64,0,.64-1,0-1s-.64,1,0,1h0Z"/>
        <path class="cls-5" d="M710.48,74.69c.64,0,.64-1,0-1s-.64,1,0,1h0Z"/>
        <path class="cls-5" d="M728,127.72c.64,0,.64-1,0-1s-.64,1,0,1h0Z"/>
        <path class="cls-5" d="M745.51,108.75c.64,0,.64-1,0-1s-.64,1,0,1h0Z"/>
        <path class="cls-5" d="M749.89,101.94c.64,0,.64-1,0-1s-.64,1,0,1h0Z"/>
        <path class="cls-5" d="M761.56,98.53c.64,0,.64-1,0-1s-.64,1,0,1h0Z"/>
        <path class="cls-5" d="M770.32,97.07c.64,0,.64-1,0-1s-.64,1,0,1h0Z"/>
        <path class="cls-5" d="M737.73,62.53c.64,0,.64-1,0-1s-.64,1,0,1h0Z"/>
        <path class="cls-5" d="M878.95,61.66c.64,0,.64-1,0-1s-.64,1,0,1h0Z"/>
        <path class="cls-5" d="M868.8,55.86c.64,0,.64-1,0-1s-.64,1,0,1h0Z"/>
        <path class="cls-5" d="M870.97,63.84c.64,0,.64-1,0-1s-.64,1,0,1h0Z"/>
        <path class="cls-5" d="M883.3,68.19c.64,0,.64-1,0-1s-.64,1,0,1h0Z"/>
        <path class="cls-5" d="M897.08,68.19c.64,0,.64-1,0-1s-.64,1,0,1h0Z"/>
        <path class="cls-5" d="M915.94,63.84c.64,0,.64-1,0-1s-.64,1,0,1h0Z"/>
        <path class="cls-5" d="M857.19,122.59c.64,0,.64-1,0-1s-.64,1,0,1h0Z"/>
        <path class="cls-5" d="M868.07,119.68c.64,0,.64-1,0-1s-.64,1,0,1h0Z"/>
        <path class="cls-5" d="M878.95,116.78c.64,0,.64-1,0-1s-.64,1,0,1h0Z"/>
        <path class="cls-5" d="M882.58,111.71c.64,0,.64-1,0-1s-.64,1,0,1h0Z"/>
        <path class="cls-5" d="M899.99,119.68c.64,0,.64-1,0-1s-.64,1,0,1h0Z"/>
        <path class="cls-5" d="M968.16,46.43c.64,0,.64-1,0-1s-.64,1,0,1h0Z"/>
        <path class="cls-5" d="M962.36,48.61c.64,0,.64-1,0-1s-.64,1,0,1h0Z"/>
        <path class="cls-5" d="M952.21,49.33c.64,0,.64-1,0-1s-.64,1,0,1h0Z"/>
        <path class="cls-5" d="M976.14,23.95c.64,0,.64-1,0-1s-.64,1,0,1h0Z"/>
        <path class="cls-5" d="M984.84,21.05c.64,0,.64-1,0-1s-.64,1,0,1h0Z"/>
        <path class="cls-5" d="M1024.74,15.24c.64,0,.64-1,0-1s-.64,1,0,1h0Z"/>
        <path class="cls-5" d="M1033.44,12.34c.64,0,.64-1,0-1s-.64,1,0,1h0Z"/>
        <path class="cls-5" d="M1042.14,20.32c.64,0,.64-1,0-1s-.64,1,0,1h0Z"/>
        <path class="cls-5" d="M1040.69,70.36c.64,0,.64-1,0-1s-.64,1,0,1h0Z"/>
        <path class="cls-5" d="M1050.12,74.72c.64,0,.64-1,0-1s-.64,1,0,1h0Z"/>
        <path class="cls-5" d="M1047.94,80.52c.64,0,.64-1,0-1s-.64,1,0,1h0Z"/>
        <path class="cls-5" d="M1055.92,80.52c.64,0,.64-1,0-1s-.64,1,0,1h0Z"/>
        <path class="cls-5" d="M1066.8,83.42c.64,0,.64-1,0-1s-.64,1,0,1h0Z"/>
        <path class="cls-5" d="M1059.55,13.07c.64,0,.64-1,0-1s-.64,1,0,1h0Z"/>
        <path class="cls-5" d="M1074.05,25.4c.64,0,.64-1,0-1s-.64,1,0,1h0Z"/>
        <path class="cls-5" d="M1084.21,31.92c.64,0,.64-1,0-1s-.64,1,0,1h0Z"/>
        <path class="cls-5" d="M1095.81,50.06c.64,0,.64-1,0-1s-.64,1,0,1h0Z"/>
        <path class="cls-5" d="M1109.56,118.95c.64,0,.64-1,0-1s-.64,1,0,1h0Z"/>
        <path class="cls-5" d="M1131.76,105.63c.64,0,.64-1,0-1s-.64,1,0,1h0Z"/>
        <path class="cls-5" d="M1138.86,106.52c.64,0,.64-1,0-1s-.64,1,0,1h0Z"/>
        <path class="cls-5" d="M1152.18,102.97c.64,0,.64-1,0-1s-.64,1,0,1h0Z"/>
        <path class="cls-5" d="M1161.95,98.53c.64,0,.64-1,0-1s-.64,1,0,1h0Z"/>
        <path class="cls-5" d="M1168.16,93.2c.64,0,.64-1,0-1s-.64,1,0,1h0Z"/>
        <path class="cls-5" d="M1183.26,104.74c.64,0,.64-1,0-1s-.64,1,0,1h0Z"/>
        <path class="cls-5" d="M1189.47,104.74c.64,0,.64-1,0-1s-.64,1,0,1h0Z"/>
        <path class="cls-5" d="M1209.9,68.34c.64,0,.64-1,0-1s-.64,1,0,1h0Z"/>
        <path class="cls-5" d="M1256.07,91.43c.64,0,.64-1,0-1s-.64,1,0,1h0Z"/>
        <path class="cls-5" d="M1259.62,88.76c.64,0,.64-1,0-1s-.64,1,0,1h0Z"/>
        <path class="cls-5" d="M1251.63,85.21c.64,0,.64-1,0-1s-.64,1,0,1h0Z"/>
        <path class="cls-5" d="M1247.19,90.54c.64,0,.64-1,0-1s-.64,1,0,1h0Z"/>
        <path class="cls-5" d="M1247.19,97.64c.64,0,.64-1,0-1s-.64,1,0,1h0Z"/>
      </g>
      <g>
        <path class="cls-6" d="M.04,120.66c15.25,1.21,32-4.45,46.43-10.24,13.03-5.23,26.05-10.94,37.22-19.46,11.56-8.81,20.74-20.35,31.69-29.91,11.26-9.83,24.56-17.61,39.14-20.91,14.57-3.3,30.47-1.86,43.47,5.52,17.15,9.73,27.22,28.05,40.39,42.72,4.59,5.11,9.76,9.93,16.1,12.57,5.57,2.32,11.72,2.83,17.75,2.88,20.53.17,41.08-4.72,59.32-14.13,13.26-7.88,27.64-16.45,43.69-19.13,16.06-2.68,34.42,1.88,43.66,15.29,5.76,8.37,7.57,19.38,14.91,26.41,6.8,6.51,16.96,8.14,26.36,7.73,22.49-.98,43.42-11.57,62.37-23.7,18.96-12.13,36.93-26.11,57.52-35.2,20.58-9.1,44.87-12.85,65.45-3.75,10.94,11.65,22.57,23.52,37.08,30.91,5.34,2.72,11.19,4.83,17.18,4.61,6.36-.24,12.34-3.06,17.75-6.4,10.26-6.31,19.18-14.6,29.42-20.94,17.3-10.71,38.19-15.48,58.42-13.34,30.37,3.22,57.55,21.2,87.82,25.23,21.84,2.91,44.48-1.78,63.82-12.34,15.45-8.44,28.79-20.45,44.55-28.29,19.01-9.46,41.19-12.39,62.01-8.19,10.56,4.41,15.9,16.7,20.56,27.74,4.67,11.03,11.1,23.13,22.69,26.16,4.99,1.3,10.25.68,15.35-.04,10.64-1.51,21.23-3.38,31.74-5.61,10.57-2.25,21.7-4.85,31.98-1.53,9.02,2.92,15.97,9.97,23.36,15.91,7.39,5.95,14.01,12.06,22.88,15.4,15.11,5.7,22.47-15.13,45.56-3.11,2.81,1.47,4.51,17.6,20.06,17.16v21.14c-6.04-.08-23.53-10.73-30.32-4.04-9.13,9-26.48.76-36.66-7.07-10.69-8.23-16.11-21.76-26.33-30.56-8.83-7.59-20.73-11.06-32.37-11.04-11.65.02-23.09,3.31-33.77,7.95-8.05,3.49-15.85,7.79-24.42,9.64-8.57,1.86-18.36.85-24.73-5.17-7.06-6.68-8.18-17.53-13.74-25.5-8.63-12.37-25.89-15.13-40.91-13.72-23.67,2.23-46.98,10.2-66.18,24.22-21.98,16.05-47.42,21.19-73.57,23.85-26.29,2.67-54.63,3.99-75.81-11.83-6.89-5.15-13.08-11.69-21.25-14.39-6.35-2.09-13.28-1.62-19.83-.29-17.95,3.63-34.54,13.66-46.09,27.88-9.19,13.53-24.44,23.77-41.11,26.74-6.38,1.14-13.29,1.17-18.95-1.99-4.69-2.62-8.02-7.17-10.44-11.97-4.22-8.36-6.06-17.73-10.06-26.2-3.99-8.47-11.11-16.45-20.42-17.45-6.52-.69-12.97,2.21-18.19,6.19-5.21,3.99-9.5,9.04-14.27,13.55-10.99,10.4-24.67,17.92-39.34,21.64-6.17,1.56-12.7,2.44-18.85.84-6.12-1.59-11.6-5.58-17.9-6.05-26.96-1.58-46.77,24.69-72.13,34.9-23.84,9.6-53.23,3.26-71-15.31-6.69-6.99-12.04-15.66-20.55-20.26-10.36-5.61-23.26-3.88-34.17.54-10.92,4.41-20.7,11.26-31.47,16.01-14.3,6.32-31.43,8.64-45.3,1.43-27.35-14.23-29.99-57.43-58.34-69.54-15.35-6.56-33.52-1.2-47.23,8.32-13.72,9.53-24.32,22.78-36.41,34.29-17.19,16.38-38.02,29.53-61.18,34.76-14.14,3.2-26.11.21-44.41-.34"/>
        <path class="cls-2" d="M1297.74,141.81c-11.15-.57-21.06-11.42-30.32-4.04-10.04,8-26.48.76-36.66-7.07-10.69-8.23-16.11-21.76-26.33-30.56-8.83-7.59-20.73-11.06-32.37-11.04-11.65.02-23.09,3.31-33.77,7.95-8.05,3.49-15.85,7.79-24.42,9.64-8.57,1.86-18.36.85-24.73-5.17-7.06-6.68-8.18-17.53-13.74-25.5-8.63-12.37-25.89-15.13-40.91-13.72-23.67,2.23-46.98,10.2-66.18,24.22-21.98,16.05-47.42,21.19-73.57,23.85-26.29,2.67-54.63,3.99-75.81-11.83-6.89-5.15-13.08-11.69-21.25-14.39-6.35-2.09-13.28-1.62-19.83-.29-17.95,3.63-34.54,13.66-46.09,27.88-9.19,13.53-24.44,23.77-41.11,26.74-6.38,1.14-13.29,1.17-18.95-1.99-4.69-2.62-8.02-7.17-10.44-11.97-4.22-8.36-6.06-17.73-10.06-26.2-3.99-8.47-11.11-16.45-20.42-17.45-6.52-.69-12.97,2.21-18.19,6.19-5.21,3.99-9.5,9.04-14.27,13.55-10.99,10.4-24.67,17.92-39.34,21.64-6.17,1.56-12.7,2.44-18.85.84-6.12-1.59-11.6-5.58-17.9-6.05-26.96-1.58-46.77,24.69-72.13,34.9-23.84,9.6-53.23,3.26-71-15.31-6.69-6.99-12.04-15.66-20.55-20.26-10.36-5.61-23.26-3.88-34.17.54-10.92,4.41-20.7,11.26-31.47,16.01-14.3,6.32-31.43,8.64-45.3,1.43-27.35-14.23-29.99-57.43-58.34-69.54-15.35-6.56-33.52-1.2-47.23,8.32-13.72,9.53-24.32,22.78-36.41,34.29-17.19,16.38-38.02,29.53-61.18,34.76-14.14,3.2-23.06-1.07-44.41-.34"/>
        <path class="cls-2" d="M.04,120.66c17.97-.1,32-4.45,46.43-10.24,13.03-5.23,26.05-10.94,37.22-19.46,11.56-8.81,20.74-20.35,31.69-29.91,11.26-9.83,24.56-17.61,39.14-20.91,14.57-3.3,30.47-1.86,43.47,5.52,17.15,9.73,27.22,28.05,40.39,42.72,4.59,5.11,9.76,9.93,16.1,12.57,5.57,2.32,11.72,2.83,17.75,2.88,20.53.17,41.08-4.72,59.32-14.13,13.26-7.88,27.64-16.45,43.69-19.13,16.06-2.68,34.42,1.88,43.66,15.29,5.76,8.37,7.57,19.38,14.91,26.41,6.8,6.51,16.96,8.14,26.36,7.73,22.49-.98,43.42-11.57,62.37-23.7,18.96-12.13,36.93-26.11,57.52-35.2,19.11-8.45,41.43-12.29,61-5.5,2.68.93,5.11,2.46,7.06,4.52,10.19,10.73,21.11,21.34,34.47,28.14,5.34,2.72,11.19,4.83,17.18,4.61,6.36-.24,12.34-3.06,17.75-6.4,10.26-6.31,19.18-14.6,29.42-20.94,17.3-10.71,38.19-15.48,58.42-13.34,30.37,3.22,57.55,21.2,87.82,25.23,21.84,2.91,44.48-1.78,63.82-12.34,15.45-8.44,28.79-20.45,44.55-28.29,19.01-9.46,41.19-12.39,62.01-8.19,10.56,4.41,15.9,16.7,20.56,27.74,4.67,11.03,11.1,23.13,22.69,26.16,4.99,1.3,10.25.68,15.35-.04,10.64-1.51,21.23-3.38,31.74-5.61,10.57-2.25,21.7-4.85,31.98-1.53,9.02,2.92,15.97,9.97,23.36,15.91,7.39,5.95,14.01,12.06,22.88,15.4,15.11,5.7,22.47-15.13,45.56-3.11,2.81,1.47,4.94,17.18,20.06,17.16"/>
      </g>
    </g>
  </g>
</svg>