<?xml version="1.0" encoding="UTF-8"?>
<svg id="Layer_2" data-name="Layer 2" xmlns="http://www.w3.org/2000/svg" viewBox="0 0 1302.05 353.1">
  <defs>
    <style>
      .cls-1 {
        stroke: #5c4945;
      }

      .cls-1, .cls-2 {
        fill: none;
        stroke-miterlimit: 10;
        stroke-width: 2px;
      }

      .cls-2 {
        stroke: #ebe9db;
      }

      .cls-3 {
        fill: #b2bddb;
      }

      .cls-4 {
        fill: #ebe9db;
      }

      .cls-5 {
        fill: #9ca8c9;
      }
    </style>
  </defs>
  <g id="Layer_5" data-name="Layer 5">
    <g>
      <g>
        <path class="cls-3" d="M.14,42.28c20.31-.86,16.14-33.21,35.68-38.6s44.02-2.9,54.38,16.12c11.48,21.08-.91,49.76,8.2,72.2,11.72,28.84,50.26,28.67,75.52,13.68,25.26-15,46.08-39.87,73.86-47.78,11.68-3.32,25.83-2.56,33.56,7.65,4.23,5.58,5.79,13.04,9.38,19.14,8.42,14.27,26.07,18.12,41.45,16.35s30.28-7.79,45.73-7.99c39.1-.51,23.67,77.03,69.78,30.93,12.21-12.21-32.89-41.54,75.38-59.7,28.86-4.84,27.78,34.95,85.15-16.62,12.19-10.95,75.02,16.5,89.23,24.13,45.85,24.63,104.53-30.63,149.23-3.55,11.44,6.93,20.39,18.71,32.73,23.4,9.29,3.53,19.42,2.61,29.21,1.66,41.49-4.07,85.47-9.16,118.45-37.18,12.2-10.37,22.41-23.55,35.46-32.58,18.78-13,42.9-16.2,63.95-8.49,12.44,4.56,24.39,13.6,28.96,27.13,4.52,13.38,1.23,29.03,6.7,41.98,7.81,18.49,30.88,23.5,48.29,16.53,17.41-6.97,30.63-22.45,43.9-36.68,13.27-14.23,29.69-21.87,47.73-21.05l-.15,263.34c-15.16-.25-26.15,20.29-43.64,15.24s-31.4-19.13-45.41-31.71c-14.01-12.58-30.23-24.62-48.31-24.19-29.42.69-50.99,33.46-80.1,38.21-32.04,5.23-63.24-24.92-94.77-16.71-8.93,2.33-17.03,7.62-25.9,10.22-31.8,9.32-64-17.4-96.8-14.43-18.94,1.71-78.8-28.11-52.98,22.06,14.26,27.72-165.59,46.96-137.6,3.27,11.24-17.55-71.76-2.32-86.15-18.7-7.09-8.07-12.78-17.78-21.04-24.38-16.87-13.49-40.09-10.93-60.29-5.24-4,1.13-8.32,2.61-10.63,6.37-2.94,4.77-1.53,11.11-1.07,16.85,2.17,26.92-20.24,50.11-44.17,56.1-23.94,5.99-48.8-.7-72.7-6.85-23.9-6.16-49.2-11.78-72.65-3.8-4.66,1.59-9.37,3.72-14.23,3.25-13.04-1.27-18.43-19.12-18.73-33.53-.3-14.41,6.43-9.18,3.2-18.32-3.76-10.65-12.87-9.39-26.43-3.79-10.76,4.44-.34,12.49-5.04,22.5s-15.02,12.8-25.23,9.99c-10.22-2.8-19.09-10.55-29.54-11.96-29.89-4.02-44.88,41.59-73.12,53.12-18.84,7.69-42.3-3.66-49.89-24.14-7.69-20.73,17.99-36.57,1-48.87-5.67-4.1-20.69-17.11-27.45-17.67-22.83-1.86-22.88,46.6-42.17,46.77L.14,42.28Z"/>
        <path class="cls-1" d="M1301.9,306.28c-13.36-.17-26.82,20.1-44.31,15.05s-31.4-19.13-45.41-31.71c-14.01-12.58-30.23-24.62-48.31-24.19-29.42.69-50.99,33.46-80.1,38.21-32.04,5.23-63.24-24.92-94.77-16.71-8.93,2.33-17.03,7.62-25.9,10.22-31.8,9.32-64-17.4-96.8-14.43-18.94,1.71-78.8-28.11-52.98,22.06,14.26,27.72-165.59,46.96-137.6,3.27,11.24-17.55-71.76-2.32-86.15-18.7-7.09-8.07-12.78-17.78-21.04-24.38-16.87-13.49-40.09-10.93-60.29-5.24-4,1.13-8.32,2.61-10.63,6.37-2.94,4.77-1.53,11.11-1.07,16.85,2.17,26.92-20.24,50.11-44.17,56.1-23.94,5.99-48.8-.7-72.7-6.85-23.9-6.16-49.2-11.78-72.65-3.8-4.66,1.59-9.37,3.72-14.23,3.25-13.04-1.27-18.43-19.12-18.73-33.53-.3-14.41,6.43-9.18,3.2-18.32-3.76-10.65-12.87-9.39-26.43-3.79-10.76,4.44-.34,12.49-5.04,22.5s-15.02,12.8-25.23,9.99c-10.22-2.8-19.09-10.55-29.54-11.96-29.89-4.02-44.88,41.59-73.12,53.12-18.84,7.69-42.3-3.66-49.89-24.14-7.69-20.73,17.99-36.57,1-48.87-5.67-4.1-20.69-17.11-27.45-17.67-22.83-1.86-22.26,47.11-41.55,47.28"/>
        <path class="cls-1" d="M.06,42.04c20.47.11,15.55-33.16,35.09-38.55C54.68-1.9,79.17.59,89.52,19.61c11.48,21.08-.91,49.76,8.2,72.2,11.72,28.84,50.26,28.67,75.52,13.68s46.08-39.87,73.86-47.78c11.68-3.32,25.83-2.56,33.56,7.65,4.23,5.58,5.79,13.04,9.38,19.14,8.42,14.27,26.07,18.12,41.45,16.35s30.28-7.79,45.73-7.99c39.1-.51,23.67,77.03,69.78,30.93,12.21-12.21-32.89-41.54,75.38-59.7,28.86-4.84,27.78,34.95,85.15-16.62,12.19-10.95,75.02,16.5,89.23,24.13,45.85,24.63,104.53-30.63,149.23-3.55,11.44,6.93,20.39,18.71,32.73,23.4,9.29,3.53,19.42,2.61,29.21,1.66,41.49-4.07,85.47-9.16,118.45-37.18,12.2-10.37,22.41-23.55,35.46-32.58,18.78-13,42.9-16.2,63.95-8.49,12.44,4.56,24.39,13.6,28.96,27.13,4.52,13.38,1.23,29.03,6.7,41.98,7.81,18.49,30.88,23.5,48.29,16.53,17.41-6.97,30.63-22.45,43.9-36.68,13.27-14.23,30.47-21.28,48.25-21.28"/>
      </g>
      <g>
        <path class="cls-5" d="M.27,65.91c11.29,0,31.43-24.88,36.36-25.33,19.1-1.75,28.95,26.33,34.53,42.06,5.58,15.73-30.7,45.07-16.28,63.52,6.87,8.79,38.31-8.43,46.05-6.06,30.82,9.45,27.8,30.55,48.11,14.63,11.25-8.81,23.77-5.15,30.21-17.91,9.81-19.42,21.57-39.51,40.99-49.31,19.43-9.8,48.23-3.61,54.71,17.16,3.4,10.9-17.94,23.62-18.22,35.03s-1.24,10.01,10.01,12c9.94,1.76,18.49-6.38,26.6-12.4,8.1-6.03,23.29-4.57,29,3.76,5.04,7.36,24.54-29.61,53.72-17.64,34.45,14.14,12.47,46.19,27.43,50.27,6,1.64,10.92,5.81,16.16,9.15,35.5,22.61,54.57-5.86,61.96-47.3,1.61-9.02,1.3-18.45,4.31-27.1,5.54-15.94,22.53-26.66,39.41-26.23s32.71,11.18,40.72,26.04c2.22,4.11,3.97,8.62,7.3,11.9,7.38,7.27,20.03,5.85,28.78.28,8.74-5.57,14.9-14.28,22.12-21.71,14.79-15.2,29.66-5.43,50.81-3.83,21.15,1.6,47.6-3.2,51.82,17.58,1.36,6.68,1.28,14.13,5.58,19.42,5.2,6.39,14.59,7.02,22.82,6.73,30.02-1.04,20.85-33.42,48.68-44.73,24.08-9.79,72.89,29.77,113.04,17.81,9.05-2.7,13.04,13.75,20.75,19.2,20.01,14.13,48.63,3.62,66.53-13.11,17.9-16.73,30.36-38.97,49.86-53.81,19.49-14.84,51.21-19.08,66.1.37,14.7,19.2,5.29,50.81,22.7,67.6,16.26,15.68,42.98,7.05,63.51-3.37,12.52-10.32,27.51-20.47,43.68-21.82,13-1.09,10.47-16.25,13.38-25.36,6.37-19.92,38.5-18.23,38.5-18.23l-.05,182.69c-27.78-.29-6.79,89.05-76.01,15.17-7.4-7.9-20.79-18.16-16.3-28.01,30.18-66.32-47.18-40.18-69.33-32.95s-36.22,41.58-57.36,51.36c-4.78,2.21-10.26,4.21-15.18,2.32-6.45-2.48-4.83-20.96-9.72-25.84-14.81-14.81-38.04-4.59-55.47,3.36-17.43,7.94-32.83,21-51.61,24.73-21.81,4.34-43.92-4.69-63.71-14.84s-39.73-21.88-61.91-23.47c-22.18-1.59-47.36,11.05-51.05,32.98-1.13,6.71-.24,13.92-3.17,20.06-2.49,5.22-7.44,8.87-12.67,11.33-28.98,13.62-67.99-12.72-66.18-44.69-19.43-14.45-44.53,21.8-67.54,14.27-13.85-4.53-46.74-12.67-53.59-25.53-17.44-32.72-39.72-49.06-65.63-22.54-18.16,18.58-27.13,50.73-52.88,54.14-9.43,1.25,53.92,44.36-15.44,50.03-41.12,3.36-57.26-22.71-73.69-22.12-16.74.6-45.01,18.42-56.94,6.67-12.7-12.5,9.34-30.58,5.68-48.02-3.75-17.88-3.67-20.6-21.47-16.49-13.58,3.14-29.36.15-40.64-8.05-6.54-4.76-5.67-22.83-13.28-20.08-32.06,11.58-11.42,50.1-22.55,58.92-11.13,8.82-33.92-36.11-43.16-25.33s-11.41,21.04-18.02,26.9c-6.35,5.63-12.05,33.44-42.42,32.15-18.31-.78-28.74-46.65-39.76-61.61-6.85-9.3-24.52-30.54-39.65-23.68-9.93,4.51-10.9,1.6-17.19,10.51-9.97,14.1,5.04,28.51-14.08,29.67l.22-183.28Z"/>
        <path class="cls-2" d="M1301.88,248.5c-27.69-.29-7.01,89.27-76.23,15.39-7.4-7.9-20.79-18.16-16.3-28.01,30.18-66.32-47.18-40.18-69.33-32.95s-36.22,41.58-57.36,51.36c-4.78,2.21-10.26,4.21-15.18,2.32-6.45-2.48-4.83-20.96-9.72-25.84-14.81-14.81-38.04-4.59-55.47,3.36-17.43,7.94-32.83,21-51.61,24.73-21.81,4.34-43.92-4.69-63.71-14.84-19.79-10.15-39.73-21.88-61.91-23.47-22.18-1.59-47.36,11.05-51.05,32.98-1.13,6.71-.24,13.92-3.17,20.06-2.49,5.22-7.44,8.87-12.67,11.33-28.98,13.62-67.99-12.72-66.18-44.69-19.43-14.45-44.53,21.8-67.54,14.27-13.85-4.53-46.74-12.67-53.59-25.53-17.44-32.72-39.72-49.06-65.63-22.54-18.16,18.58-27.13,50.73-52.88,54.14-9.43,1.25,53.92,44.36-15.44,50.03-41.12,3.36-57.26-22.71-73.69-22.12-16.74.6-45.01,18.42-56.94,6.67-12.7-12.5,9.34-30.58,5.68-48.02-3.75-17.88-3.67-20.6-21.47-16.49-13.58,3.14-29.36.15-40.64-8.05-6.54-4.76-5.67-22.83-13.28-20.08-32.06,11.58-11.42,50.1-22.55,58.92-11.13,8.82-33.92-36.11-43.16-25.33-9.24,10.78-11.41,21.04-18.02,26.9-6.35,5.63-12.05,33.44-42.42,32.15-18.31-.78-28.74-46.65-39.76-61.61-6.85-9.3-24.52-30.54-39.65-23.68-9.93,4.51-10.9,1.6-17.19,10.51-9.97,14.1,5.26,28.17-13.76,28.17"/>
        <path class="cls-2" d="M.13,66.37c11.29,0,31.25-24.48,36.18-24.94,19.1-1.75,28.95,26.33,34.53,42.06s-30.7,45.07-16.28,63.52c6.87,8.79,38.31-8.43,46.05-6.06,30.82,9.45,27.8,30.55,48.11,14.63,11.25-8.81,23.77-5.15,30.21-17.91,9.81-19.42,21.57-39.51,40.99-49.31,19.43-9.8,48.23-3.61,54.71,17.16,3.4,10.9-17.94,23.62-18.22,35.03-.27,11.42-1.24,10.01,10.01,12,9.94,1.76,18.49-6.38,26.6-12.4,8.1-6.03,23.29-4.57,29,3.76,5.04,7.36,24.54-29.61,53.72-17.64,34.45,14.14,12.47,46.19,27.43,50.27,6,1.64,10.92,5.81,16.16,9.15,35.5,22.61,54.57-5.86,61.96-47.3,1.61-9.02,1.3-18.45,4.31-27.1,5.54-15.94,22.53-26.66,39.41-26.23s32.71,11.18,40.72,26.04c2.22,4.11,3.97,8.62,7.3,11.9,7.38,7.27,20.03,5.85,28.78.28,8.74-5.57,14.9-14.28,22.12-21.71,14.79-15.2,29.66-5.43,50.81-3.83,21.15,1.6,47.6-3.2,51.82,17.58,1.36,6.68,1.28,14.13,5.58,19.42,5.2,6.39,14.59,7.02,22.82,6.73,30.02-1.04,20.85-33.42,48.68-44.73,24.08-9.79,72.89,29.77,113.04,17.81,9.05-2.7,13.04,13.75,20.75,19.2,20.01,14.13,48.63,3.62,66.53-13.11s30.36-38.97,49.86-53.81c19.49-14.84,51.21-19.08,66.1.37,14.7,19.2,5.29,50.81,22.7,67.6,16.26,15.68,42.98,7.05,63.51-3.37,12.52-10.32,27.51-20.47,43.68-21.82,13-1.09,10.47-16.25,13.38-25.36,6.37-19.92,30.25-17.86,38.68-17.89"/>
      </g>
      <g>
        <path class="cls-4" d="M978.93,102.23c1.93,0,1.93-3,0-3s-1.93,3,0,3h0Z"/>
        <path class="cls-4" d="M1027.96,69.93c1.93,0,1.93-3,0-3s-1.93,3,0,3h0Z"/>
        <path class="cls-4" d="M1079.07,26.22c1.93,0,1.93-3,0-3s-1.93,3,0,3h0Z"/>
        <path class="cls-4" d="M1138.29,76.27c1.93,0,1.93-3,0-3s-1.93,3,0,3h0Z"/>
        <path class="cls-4" d="M1144.64,122.8c1.93,0,1.93-3,0-3s-1.93,3,0,3h0Z"/>
        <path class="cls-4" d="M1184.28,129.67c1.93,0,1.93-3,0-3s-1.93,3,0,3h0Z"/>
        <path class="cls-4" d="M1231.34,98.98c1.93,0,1.93-3,0-3s-1.93,3,0,3h0Z"/>
        <path class="cls-4" d="M1277.03,56.01c1.93,0,1.93-3,0-3s-1.93,3,0,3h0Z"/>
        <path class="cls-4" d="M1286.58,306.98c1.93,0,1.93-3,0-3s-1.93,3,0,3h0Z"/>
        <path class="cls-4" d="M1245.66,309.71c1.93,0,1.93-3,0-3s-1.93,3,0,3h0Z"/>
        <path class="cls-4" d="M1194.51,232.65c1.93,0,1.93-3,0-3s-1.93,3,0,3h0Z"/>
        <path class="cls-4" d="M1156.32,253.11c1.93,0,1.93-3,0-3s-1.93,3,0,3h0Z"/>
        <path class="cls-4" d="M1122.22,235.38c1.93,0,1.93-3,0-3s-1.93,3,0,3h0Z"/>
        <path class="cls-4" d="M1105.85,274.93c1.93,0,1.93-3,0-3s-1.93,3,0,3h0Z"/>
        <path class="cls-4" d="M1034.24,255.84c1.93,0,1.93-3,0-3s-1.93,3,0,3h0Z"/>
        <path class="cls-4" d="M969.49,276.09c1.93,0,1.93-3,0-3s-1.93,3,0,3h0Z"/>
        <path class="cls-4" d="M935.41,286.99c1.93,0,1.93-3,0-3s-1.93,3,0,3h0Z"/>
        <path class="cls-4" d="M931.32,272c1.93,0,1.93-3,0-3s-1.93,3,0,3h0Z"/>
        <path class="cls-4" d="M849.52,254.27c1.93,0,1.93-3,0-3s-1.93,3,0,3h0Z"/>
        <path class="cls-4" d="M804.53,247.46c1.93,0,1.93-3,0-3s-1.93,3,0,3h0Z"/>
        <path class="cls-4" d="M790.89,303.35c1.93,0,1.93-3,0-3s-1.93,3,0,3h0Z"/>
        <path class="cls-4" d="M750.85,306.36c1.93,0,1.93-3,0-3s-1.93,3,0,3h0Z"/>
        <path class="cls-4" d="M727.49,325.14c1.93,0,1.93-3,0-3s-1.93,3,0,3h0Z"/>
        <path class="cls-4" d="M699.55,297.2c1.93,0,1.93-3,0-3s-1.93,3,0,3h0Z"/>
        <path class="cls-4" d="M687.18,284.83c1.93,0,1.93-3,0-3s-1.93,3,0,3h0Z"/>
        <path class="cls-4" d="M660.15,281.62c1.93,0,1.93-3,0-3s-1.93,3,0,3h0Z"/>
        <path class="cls-4" d="M673.89,256.43c1.93,0,1.93-3,0-3s-1.93,3,0,3h0Z"/>
        <path class="cls-4" d="M632.2,278.42c1.93,0,1.93-3,0-3s-1.93,3,0,3h0Z"/>
        <path class="cls-4" d="M537.01,224.73c1.93,0,1.93-3,0-3s-1.93,3,0,3h0Z"/>
        <path class="cls-4" d="M500.7,241.49c1.93,0,1.93-3,0-3s-1.93,3,0,3h0Z"/>
        <path class="cls-4" d="M482.09,271.28c1.93,0,1.93-3,0-3s-1.93,3,0,3h0Z"/>
        <path class="cls-4" d="M473.71,312.24c1.93,0,1.93-3,0-3s-1.93,3,0,3h0Z"/>
        <path class="cls-4" d="M403.89,323.41c1.93,0,1.93-3,0-3s-1.93,3,0,3h0Z"/>
        <path class="cls-4" d="M371.3,307.59c1.93,0,1.93-3,0-3s-1.93,3,0,3h0Z"/>
        <path class="cls-4" d="M327.55,322.48c1.93,0,1.93-3,0-3s-1.93,3,0,3h0Z"/>
        <path class="cls-4" d="M289.38,321.55c1.93,0,1.93-3,0-3s-1.93,3,0,3h0Z"/>
        <path class="cls-4" d="M296.83,303.86c1.93,0,1.93-3,0-3s-1.93,3,0,3h0Z"/>
        <path class="cls-4" d="M287.52,302c1.93,0,1.93-3,0-3s-1.93,3,0,3h0Z"/>
        <path class="cls-4" d="M294.03,278.73c1.93,0,1.93-3,0-3s-1.93,3,0,3h0Z"/>
        <path class="cls-4" d="M267.97,251.73c1.93,0,1.93-3,0-3s-1.93,3,0,3h0Z"/>
        <path class="cls-4" d="M249.35,269.42c1.93,0,1.93-3,0-3s-1.93,3,0,3h0Z"/>
        <path class="cls-4" d="M240.04,246.14c1.93,0,1.93-3,0-3s-1.93,3,0,3h0Z"/>
        <path class="cls-4" d="M233.52,233.11c1.93,0,1.93-3,0-3s-1.93,3,0,3h0Z"/>
        <path class="cls-4" d="M216.77,283.38c1.93,0,1.93-3,0-3s-1.93,3,0,3h0Z"/>
        <path class="cls-4" d="M177.67,275.93c1.93,0,1.93-3,0-3s-1.93,3,0,3h0Z"/>
        <path class="cls-4" d="M159.98,294.55c1.93,0,1.93-3,0-3s-1.93,3,0,3h0Z"/>
        <path class="cls-4" d="M136.7,305.72c1.93,0,1.93-3,0-3s-1.93,3,0,3h0Z"/>
        <path class="cls-4" d="M123.67,322.48c1.93,0,1.93-3,0-3s-1.93,3,0,3h0Z"/>
        <path class="cls-4" d="M100.4,327.14c1.93,0,1.93-3,0-3s-1.93,3,0,3h0Z"/>
        <path class="cls-4" d="M76.19,274.07c1.93,0,1.93-3,0-3s-1.93,3,0,3h0Z"/>
        <path class="cls-4" d="M90.16,292.69c1.93,0,1.93-3,0-3s-1.93,3,0,3h0Z"/>
        <path class="cls-4" d="M38.95,231.25c1.93,0,1.93-3,0-3s-1.93,3,0,3h0Z"/>
        <path class="cls-4" d="M67.81,31.1c1.93,0,1.93-3,0-3s-1.93,3,0,3h0Z"/>
        <path class="cls-4" d="M32.44,30.16c1.93,0,1.93-3,0-3s-1.93,3,0,3h0Z"/>
        <path class="cls-4" d="M82.71,79.5c1.93,0,1.93-3,0-3s-1.93,3,0,3h0Z"/>
        <path class="cls-4" d="M243.76,77.64c1.93,0,1.93-3,0-3s-1.93,3,0,3h0Z"/>
        <path class="cls-4" d="M156.25,129.78c1.93,0,1.93-3,0-3s-1.93,3,0,3h0Z"/>
        <path class="cls-4" d="M316.38,114.88c1.93,0,1.93-3,0-3s-1.93,3,0,3h0Z"/>
        <path class="cls-4" d="M325.69,131.64c1.93,0,1.93-3,0-3s-1.93,3,0,3h0Z"/>
        <path class="cls-4" d="M368.51,110.23c1.93,0,1.93-3,0-3s-1.93,3,0,3h0Z"/>
        <path class="cls-4" d="M454.16,141.88c1.93,0,1.93-3,0-3s-1.93,3,0,3h0Z"/>
        <path class="cls-4" d="M434.61,168.88c1.93,0,1.93-3,0-3s-1.93,3,0,3h0Z"/>
        <path class="cls-4" d="M418.78,153.05c1.93,0,1.93-3,0-3s-1.93,3,0,3h0Z"/>
        <path class="cls-4" d="M490.46,75.78c1.93,0,1.93-3,0-3s-1.93,3,0,3h0Z"/>
        <path class="cls-4" d="M576.11,86.95c1.93,0,1.93-3,0-3s-1.93,3,0,3h0Z"/>
        <path class="cls-4" d="M609.63,95.33c1.93,0,1.93-3,0-3s-1.93,3,0,3h0Z"/>
        <path class="cls-4" d="M631.04,69.26c1.93,0,1.93-3,0-3s-1.93,3,0,3h0Z"/>
        <path class="cls-4" d="M686.89,81.37c1.93,0,1.93-3,0-3s-1.93,3,0,3h0Z"/>
        <path class="cls-4" d="M751.13,103.71c1.93,0,1.93-3,0-3s-1.93,3,0,3h0Z"/>
        <path class="cls-4" d="M812.52,78.91c1.93,0,1.93-3,0-3s-1.93,3,0,3h0Z"/>
        <path class="cls-4" d="M851.52,89.02c1.93,0,1.93-3,0-3s-1.93,3,0,3h0Z"/>
        <path class="cls-4" d="M935.31,109.25c1.93,0,1.93-3,0-3s-1.93,3,0,3h0Z"/>
        <path class="cls-4" d="M1097.09,32.69c1.93,0,1.93-3,0-3s-1.93,3,0,3h0Z"/>
        <path class="cls-4" d="M1078.25,280.51c.64,0,.64-1,0-1s-.64,1,0,1h0Z"/>
        <path class="cls-4" d="M1067.87,289.95c.64,0,.64-1,0-1s-.64,1,0,1h0Z"/>
        <path class="cls-4" d="M1065.99,272.02c.64,0,.64-1,0-1s-.64,1,0,1h0Z"/>
        <path class="cls-4" d="M1112.21,255.05c.64,0,.64-1,0-1s-.64,1,0,1h0Z"/>
        <path class="cls-4" d="M1116.92,257.88c.64,0,.64-1,0-1s-.64,1,0,1h0Z"/>
        <path class="cls-4" d="M1126.36,265.42c.64,0,.64-1,0-1s-.64,1,0,1h0Z"/>
        <path class="cls-4" d="M1134.84,244.67c.64,0,.64-1,0-1s-.64,1,0,1h0Z"/>
        <path class="cls-4" d="M1137.67,221.09c.64,0,.64-1,0-1s-.64,1,0,1h0Z"/>
        <path class="cls-4" d="M1182.95,245.61c.64,0,.64-1,0-1s-.64,1,0,1h0Z"/>
        <path class="cls-4" d="M1185.78,221.09c.64,0,.64-1,0-1s-.64,1,0,1h0Z"/>
        <path class="cls-4" d="M1178.23,226.75c.64,0,.64-1,0-1s-.64,1,0,1h0Z"/>
        <path class="cls-4" d="M1178.23,231.46c.64,0,.64-1,0-1s-.64,1,0,1h0Z"/>
        <path class="cls-4" d="M1178.23,210.71c.64,0,.64-1,0-1s-.64,1,0,1h0Z"/>
        <path class="cls-4" d="M1222.57,281.46c.64,0,.64-1,0-1s-.64,1,0,1h0Z"/>
        <path class="cls-4" d="M1258.41,307.87c.64,0,.64-1,0-1s-.64,1,0,1h0Z"/>
        <path class="cls-4" d="M1261.24,302.21c.64,0,.64-1,0-1s-.64,1,0,1h0Z"/>
        <path class="cls-4" d="M1265.96,308.81c.64,0,.64-1,0-1s-.64,1,0,1h0Z"/>
        <path class="cls-4" d="M1295.2,276.74c.64,0,.64-1,0-1s-.64,1,0,1h0Z"/>
        <path class="cls-4" d="M1246.15,97.52c.64,0,.64-1,0-1s-.64,1,0,1h0Z"/>
        <path class="cls-4" d="M1245.21,98.46c.64,0,.64-1,0-1s-.64,1,0,1h0Z"/>
        <path class="cls-4" d="M1241.43,87.14c.64,0,.64-1,0-1s-.64,1,0,1h0Z"/>
        <path class="cls-4" d="M1251.81,83.37c.64,0,.64-1,0-1s-.64,1,0,1h0Z"/>
        <path class="cls-4" d="M1165.97,101.29c.64,0,.64-1,0-1s-.64,1,0,1h0Z"/>
        <path class="cls-4" d="M1163.14,115.44c.64,0,.64-1,0-1s-.64,1,0,1h0Z"/>
        <path class="cls-4" d="M1158.43,102.24c.64,0,.64-1,0-1s-.64,1,0,1h0Z"/>
        <path class="cls-4" d="M1145.22,110.73c.64,0,.64-1,0-1s-.64,1,0,1h0Z"/>
        <path class="cls-4" d="M1133.9,57.9c.64,0,.64-1,0-1s-.64,1,0,1h0Z"/>
        <path class="cls-4" d="M1111.26,45.64c.64,0,.64-1,0-1s-.64,1,0,1h0Z"/>
        <path class="cls-4" d="M1044.29,54.13c.64,0,.64-1,0-1s-.64,1,0,1h0Z"/>
        <path class="cls-4" d="M1043.35,59.79c.64,0,.64-1,0-1s-.64,1,0,1h0Z"/>
        <path class="cls-4" d="M1028.26,62.62c.64,0,.64-1,0-1s-.64,1,0,1h0Z"/>
        <path class="cls-4" d="M998.07,96.58c.64,0,.64-1,0-1s-.64,1,0,1h0Z"/>
        <path class="cls-4" d="M998.07,108.84c.64,0,.64-1,0-1s-.64,1,0,1h0Z"/>
        <path class="cls-4" d="M981.09,118.27c.64,0,.64-1,0-1s-.64,1,0,1h0Z"/>
        <path class="cls-4" d="M972.6,122.99c.64,0,.64-1,0-1s-.64,1,0,1h0Z"/>
        <path class="cls-4" d="M964.11,115.44c.64,0,.64-1,0-1s-.64,1,0,1h0Z"/>
        <path class="cls-4" d="M869.82,100.34c.64,0,.64-1,0-1s-.64,1,0,1h0Z"/>
        <path class="cls-4" d="M854.53,99.54c.64,0,.64-1,0-1s-.64,1,0,1h0Z"/>
        <path class="cls-4" d="M836.82,75.39c.64,0,.64-1,0-1s-.64,1,0,1h0Z"/>
        <path class="cls-4" d="M836.01,82.64c.64,0,.64-1,0-1s-.64,1,0,1h0Z"/>
        <path class="cls-4" d="M828.77,87.47c.64,0,.64-1,0-1s-.64,1,0,1h0Z"/>
        <path class="cls-4" d="M816.69,87.47c.64,0,.64-1,0-1s-.64,1,0,1h0Z"/>
        <path class="cls-4" d="M761.15,125.3c.64,0,.64-1,0-1s-.64,1,0,1h0Z"/>
        <path class="cls-4" d="M753.1,129.32c.64,0,.64-1,0-1s-.64,1,0,1h0Z"/>
        <path class="cls-4" d="M743.44,124.49c.64,0,.64-1,0-1s-.64,1,0,1h0Z"/>
        <path class="cls-4" d="M746.66,121.27c.64,0,.64-1,0-1s-.64,1,0,1h0Z"/>
        <path class="cls-4" d="M745.86,110.81c.64,0,.64-1,0-1s-.64,1,0,1h0Z"/>
        <path class="cls-4" d="M737.81,100.34c.64,0,.64-1,0-1s-.64,1,0,1h0Z"/>
        <path class="cls-4" d="M666.97,87.47c.64,0,.64-1,0-1s-.64,1,0,1h0Z"/>
        <path class="cls-4" d="M666.97,83.44c.64,0,.64-1,0-1s-.64,1,0,1h0Z"/>
        <path class="cls-4" d="M668.58,75.39c.64,0,.64-1,0-1s-.64,1,0,1h0Z"/>
        <path class="cls-4" d="M660.53,77.81c.64,0,.64-1,0-1s-.64,1,0,1h0Z"/>
        <path class="cls-4" d="M658.12,81.83c.64,0,.64-1,0-1s-.64,1,0,1h0Z"/>
        <path class="cls-4" d="M629.14,81.83c.64,0,.64-1,0-1s-.64,1,0,1h0Z"/>
        <path class="cls-4" d="M617.06,76.2c.64,0,.64-1,0-1s-.64,1,0,1h0Z"/>
        <path class="cls-4" d="M614.65,82.64c.64,0,.64-1,0-1s-.64,1,0,1h0Z"/>
        <path class="cls-4" d="M616.26,83.44c.64,0,.64-1,0-1s-.64,1,0,1h0Z"/>
        <path class="cls-4" d="M593.72,85.86c.64,0,.64-1,0-1s-.64,1,0,1h0Z"/>
        <path class="cls-4" d="M594.52,102.76c.64,0,.64-1,0-1s-.64,1,0,1h0Z"/>
        <path class="cls-4" d="M585.67,115.64c.64,0,.64-1,0-1s-.64,1,0,1h0Z"/>
        <path class="cls-4" d="M578.43,111.61c.64,0,.64-1,0-1s-.64,1,0,1h0Z"/>
        <path class="cls-4" d="M467.15,127.87c.64,0,.64-1,0-1s-.64,1,0,1h0Z"/>
        <path class="cls-4" d="M466.63,123.7c.64,0,.64-1,0-1s-.64,1,0,1h0Z"/>
        <path class="cls-4" d="M460.9,121.61c.64,0,.64-1,0-1s-.64,1,0,1h0Z"/>
        <path class="cls-4" d="M459.86,126.82c.64,0,.64-1,0-1s-.64,1,0,1h0Z"/>
        <path class="cls-4" d="M474.45,96.59c.64,0,.64-1,0-1s-.64,1,0,1h0Z"/>
        <path class="cls-4" d="M477.58,79.39c.64,0,.64-1,0-1s-.64,1,0,1h0Z"/>
        <path class="cls-4" d="M502.08,79.91c.64,0,.64-1,0-1s-.64,1,0,1h0Z"/>
        <path class="cls-4" d="M505.2,82.52c.64,0,.64-1,0-1s-.64,1,0,1h0Z"/>
        <path class="cls-4" d="M514.59,74.7c.64,0,.64-1,0-1s-.64,1,0,1h0Z"/>
        <path class="cls-4" d="M516.67,72.62c.64,0,.64-1,0-1s-.64,1,0,1h0Z"/>
        <path class="cls-4" d="M451.52,168.52c.64,0,.64-1,0-1s-.64,1,0,1h0Z"/>
        <path class="cls-4" d="M450.99,177.9c.64,0,.64-1,0-1s-.64,1,0,1h0Z"/>
        <path class="cls-4" d="M445.26,181.03c.64,0,.64-1,0-1s-.64,1,0,1h0Z"/>
        <path class="cls-4" d="M333.59,112.62c.64,0,.64-1,0-1s-.64,1,0,1h0Z"/>
        <path class="cls-4" d="M340.36,115.23c.64,0,.64-1,0-1s-.64,1,0,1h0Z"/>
        <path class="cls-4" d="M342.97,116.79c.64,0,.64-1,0-1s-.64,1,0,1h0Z"/>
        <path class="cls-4" d="M350.79,106.36c.64,0,.64-1,0-1s-.64,1,0,1h0Z"/>
        <path class="cls-4" d="M339.84,123.57c.64,0,.64-1,0-1s-.64,1,0,1h0Z"/>
        <path class="cls-4" d="M274.05,127.28c.64,0,.64-1,0-1s-.64,1,0,1h0Z"/>
        <path class="cls-4" d="M270.56,137.74c.64,0,.64-1,0-1s-.64,1,0,1h0Z"/>
        <path class="cls-4" d="M267.65,141.81c.64,0,.64-1,0-1s-.64,1,0,1h0Z"/>
        <path class="cls-4" d="M283.35,135.42c.64,0,.64-1,0-1s-.64,1,0,1h0Z"/>
        <path class="cls-4" d="M281.6,133.09c.64,0,.64-1,0-1s-.64,1,0,1h0Z"/>
        <path class="cls-4" d="M276.95,133.09c.64,0,.64-1,0-1s-.64,1,0,1h0Z"/>
        <path class="cls-4" d="M288.58,119.14c.64,0,.64-1,0-1s-.64,1,0,1h0Z"/>
        <path class="cls-4" d="M142.64,135.42c.64,0,.64-1,0-1s-.64,1,0,1h0Z"/>
        <path class="cls-4" d="M139.73,145.3c.64,0,.64-1,0-1s-.64,1,0,1h0Z"/>
        <path class="cls-4" d="M130.43,139.49c.64,0,.64-1,0-1s-.64,1,0,1h0Z"/>
        <path class="cls-4" d="M124.03,129.02c.64,0,.64-1,0-1s-.64,1,0,1h0Z"/>
        <path class="cls-4" d="M92.05,130.76c.64,0,.64-1,0-1s-.64,1,0,1h0Z"/>
        <path class="cls-4" d="M74.61,129.6c.64,0,.64-1,0-1s-.64,1,0,1h0Z"/>
        <path class="cls-4" d="M79.26,115.65c.64,0,.64-1,0-1s-.64,1,0,1h0Z"/>
        <path class="cls-4" d="M84.49,111.58c.64,0,.64-1,0-1s-.64,1,0,1h0Z"/>
        <path class="cls-4" d="M78.1,98.2c.64,0,.64-1,0-1s-.64,1,0,1h0Z"/>
        <path class="cls-4" d="M50.77,244.15c.64,0,.64-1,0-1s-.64,1,0,1h0Z"/>
        <path class="cls-4" d="M54.26,249.38c.64,0,.64-1,0-1s-.64,1,0,1h0Z"/>
        <path class="cls-4" d="M52.51,251.12c.64,0,.64-1,0-1s-.64,1,0,1h0Z"/>
        <path class="cls-4" d="M33.91,241.24c.64,0,.64-1,0-1s-.64,1,0,1h0Z"/>
        <path class="cls-4" d="M14.14,250.54c.64,0,.64-1,0-1s-.64,1,0,1h0Z"/>
        <path class="cls-4" d="M114.15,312.76c.64,0,.64-1,0-1s-.64,1,0,1h0Z"/>
        <path class="cls-4" d="M108.33,334.27c.64,0,.64-1,0-1s-.64,1,0,1h0Z"/>
        <path class="cls-4" d="M79.84,320.9c.64,0,.64-1,0-1s-.64,1,0,1h0Z"/>
        <path class="cls-4" d="M179.27,266.82c.64,0,.64-1,0-1s-.64,1,0,1h0Z"/>
        <path class="cls-4" d="M185.67,265.08c.64,0,.64-1,0-1s-.64,1,0,1h0Z"/>
        <path class="cls-4" d="M196.71,278.45c.64,0,.64-1,0-1s-.64,1,0,1h0Z"/>
        <path class="cls-4" d="M193.22,290.66c.64,0,.64-1,0-1s-.64,1,0,1h0Z"/>
        <path class="cls-4" d="M15.88,49.36c.64,0,.64-1,0-1s-.64,1,0,1h0Z"/>
        <path class="cls-4" d="M32.74,39.48c.64,0,.64-1,0-1s-.64,1,0,1h0Z"/>
        <path class="cls-4" d="M46.12,24.94c.64,0,.64-1,0-1s-.64,1,0,1h0Z"/>
        <path class="cls-4" d="M43.21,17.38c.64,0,.64-1,0-1s-.64,1,0,1h0Z"/>
        <path class="cls-4" d="M67.05,51.69c.64,0,.64-1,0-1s-.64,1,0,1h0Z"/>
        <path class="cls-4" d="M78.1,46.45c.64,0,.64-1,0-1s-.64,1,0,1h0Z"/>
        <path class="cls-4" d="M186.25,261.01c.64,0,.64-1,0-1s-.64,1,0,1h0Z"/>
        <path class="cls-4" d="M219.39,266.82c.64,0,.64-1,0-1s-.64,1,0,1h0Z"/>
        <path class="cls-4" d="M231.6,224.96c.64,0,.64-1,0-1s-.64,1,0,1h0Z"/>
        <path class="cls-4" d="M242.65,273.22c.64,0,.64-1,0-1s-.64,1,0,1h0Z"/>
        <path class="cls-4" d="M444.62,325.82c.64,0,.64-1,0-1s-.64,1,0,1h0Z"/>
        <path class="cls-4" d="M429.27,323.91c.64,0,.64-1,0-1s-.64,1,0,1h0Z"/>
        <path class="cls-4" d="M437.9,333.5c.64,0,.64-1,0-1s-.64,1,0,1h0Z"/>
        <path class="cls-4" d="M374.6,315.27c.64,0,.64-1,0-1s-.64,1,0,1h0Z"/>
        <path class="cls-4" d="M355.42,311.44c.64,0,.64-1,0-1s-.64,1,0,1h0Z"/>
        <path class="cls-4" d="M541.48,231.84c.64,0,.64-1,0-1s-.64,1,0,1h0Z"/>
        <path class="cls-4" d="M548.2,246.22c.64,0,.64-1,0-1s-.64,1,0,1h0Z"/>
        <path class="cls-4" d="M567.38,244.3c.64,0,.64-1,0-1s-.64,1,0,1h0Z"/>
        <path class="cls-4" d="M574.09,250.06c.64,0,.64-1,0-1s-.64,1,0,1h0Z"/>
        <path class="cls-4" d="M585.6,265.4c.64,0,.64-1,0-1s-.64,1,0,1h0Z"/>
        <path class="cls-4" d="M599.03,260.61c.64,0,.64-1,0-1s-.64,1,0,1h0Z"/>
        <path class="cls-4" d="M521.34,211.7c.64,0,.64-1,0-1s-.64,1,0,1h0Z"/>
        <path class="cls-4" d="M558.74,86.06c.64,0,.64-1,0-1s-.64,1,0,1h0Z"/>
        <path class="cls-4" d="M851.41,261.1c.64,0,.64-1,0-1s-.64,1,0,1h0Z"/>
        <path class="cls-4" d="M848.92,266.08c.64,0,.64-1,0-1s-.64,1,0,1h0Z"/>
        <path class="cls-4" d="M842.07,265.46c.64,0,.64-1,0-1s-.64,1,0,1h0Z"/>
        <path class="cls-4" d="M835.84,259.85c.64,0,.64-1,0-1s-.64,1,0,1h0Z"/>
        <path class="cls-4" d="M839.58,251.13c.64,0,.64-1,0-1s-.64,1,0,1h0Z"/>
        <path class="cls-4" d="M836.47,237.43c.64,0,.64-1,0-1s-.64,1,0,1h0Z"/>
        <path class="cls-4" d="M806.57,269.19c.64,0,.64-1,0-1s-.64,1,0,1h0Z"/>
        <path class="cls-4" d="M788.51,283.52c.64,0,.64-1,0-1s-.64,1,0,1h0Z"/>
        <path class="cls-4" d="M798.47,299.09c.64,0,.64-1,0-1s-.64,1,0,1h0Z"/>
        <path class="cls-4" d="M767.33,297.22c.64,0,.64-1,0-1s-.64,1,0,1h0Z"/>
        <path class="cls-4" d="M769.82,308.43c.64,0,.64-1,0-1s-.64,1,0,1h0Z"/>
        <path class="cls-4" d="M728.09,306.56c.64,0,.64-1,0-1s-.64,1,0,1h0Z"/>
        <path class="cls-4" d="M609.13,273.55c.64,0,.64-1,0-1s-.64,1,0,1h0Z"/>
        <path class="cls-4" d="M612.25,284.14c.64,0,.64-1,0-1s-.64,1,0,1h0Z"/>
        <path class="cls-4" d="M628.44,260.47c.64,0,.64-1,0-1s-.64,1,0,1h0Z"/>
        <path class="cls-4" d="M898.75,265.46c.64,0,.64-1,0-1s-.64,1,0,1h0Z"/>
        <path class="cls-4" d="M901.24,269.19c.64,0,.64-1,0-1s-.64,1,0,1h0Z"/>
        <path class="cls-4" d="M898.75,281.03c.64,0,.64-1,0-1s-.64,1,0,1h0Z"/>
        <path class="cls-4" d="M880.69,269.19c.64,0,.64-1,0-1s-.64,1,0,1h0Z"/>
        <path class="cls-4" d="M964.77,282.27c.64,0,.64-1,0-1s-.64,1,0,1h0Z"/>
        <path class="cls-4" d="M952.94,279.16c.64,0,.64-1,0-1s-.64,1,0,1h0Z"/>
        <path class="cls-4" d="M957.3,276.67c.64,0,.64-1,0-1s-.64,1,0,1h0Z"/>
        <path class="cls-4" d="M969.75,261.1c.64,0,.64-1,0-1s-.64,1,0,1h0Z"/>
        <path class="cls-4" d="M990.93,272.31c.64,0,.64-1,0-1s-.64,1,0,1h0Z"/>
        <path class="cls-4" d="M1012.11,274.18c.64,0,.64-1,0-1s-.64,1,0,1h0Z"/>
        <path class="cls-4" d="M1058.2,286.63c.64,0,.64-1,0-1s-.64,1,0,1h0Z"/>
        <path class="cls-4" d="M1061.93,276.05c.64,0,.64-1,0-1s-.64,1,0,1h0Z"/>
        <path class="cls-4" d="M1053.84,262.34c.64,0,.64-1,0-1s-.64,1,0,1h0Z"/>
        <path class="cls-4" d="M1043.87,243.04c.64,0,.64-1,0-1s-.64,1,0,1h0Z"/>
      </g>
    </g>
  </g>
</svg>