<svg xmlns="http://www.w3.org/2000/svg" id="Layer_2" data-name="Layer 2" viewBox="0 0 400.6 182.7"><g id="Layer_2-2" stroke="#5c4945" stroke-miterlimit="10" stroke-width="2" data-name="Layer 2"><path fill="#9ca8c9" d="M105.2 57c-.9-5-1.7-10.2.3-15 1.2-3 3.5-5.3 5-8.2 2.7-5.6 2-13-2.7-17.2a18 18 0 0 0-11.8-4c-3.5-.1-7 .4-10 2.4a15 15 0 0 0-5.2 6.5c-2 4.5-2.2 9.6-.7 14.3.8 2.5 2 5 2.6 7.6.9 4.8-1 9.6-2.3 14.3-1.3 4.6-2 9.3-2.4 14-.2 3.4 0 7 1.8 10 3.1 4.6 9.8 5.3 15.3 4.1 5.5-1.2 10.8-3.8 16.4-4 4 0 8.4 1 12-1 3.6-2 4.9-6.5 5.3-10.7.5-3.4.5-7-1.2-10-2-3.7-6.4-5.5-10.5-5.6s-8.2 1.4-12 2.6zm114.3 6.2a3.1 3.1 0 0 1-5-.1c-1-1.4-2.1-2.7-3.4-4-2.3-2.3-5.5-3.9-8.6-3.2-3.4.6-6 3.7-7.4 7-2.5 6-2 13.4 2 18.3s11 6.7 16 3.5c1-.6 2-1.3 3.2-1.7 1.3-.4 2.7-.3 4 0 5.6.6 12.4 3.2 18-.2 6-3.5 7.9-7.5 9-14.6.8-5.6-1-11.6-2-14.7-1.5-4.5-7-8-11.3-9.3-2.8-.8-5.8-2.2-8.7-2.6s-6-.1-6.4-3.2c-.4-2.1.8-4.4 2.5-5.2s4.1-.2 5.3 1.5c.6 1 1 2 1.4 3 2.3 4.4 8.5 4.5 11.9 1s4-8.8 3-13.6c-.7-3.5-2.3-6.8-4.8-9.2a9.8 9.8 0 0 0-9.2-2.5c-2 .6-3.8 2-6 2.5-3 .7-6.3-.7-9.5-.6-5.8.2-10.4 5.5-13.2 11-1.7 3.4-3 7-3 11 0 3.7 1.3 7.7 4.2 10a32 32 0 0 0 10.5 5.6c3.6.4 5.2-1.8 7.8.7a6.7 6.7 0 0 1 1.8 6.1 8 8 0 0 1-2 3.5zM27 157.2a3.1 3.1 0 0 1-5.1-.2c-1-1.4-2.2-2.7-3.4-4-2.4-2.3-5.6-3.9-8.7-3.2-3.3.6-5.9 3.7-7.3 7-2.5 6-1.9 13.4 2 18.3s11 6.7 16.1 3.5c1-.6 2-1.4 3-1.7 1.4-.5 2.8-.3 4.1 0 5.6.6 12.4 3.2 18 0 6-3.7 7.8-7.7 8.9-14.8.9-5.6-1-11.7-2-14.7-1.4-4.5-7-8-11.3-9.3-2.8-.8-5.7-2.2-8.6-2.6s-6-.1-6.5-3.2c-.3-2.1.8-4.4 2.6-5.2s4-.2 5.2 1.5c.7 1 1 2 1.5 3 2.3 4.4 8.5 4.5 11.8 1.2s4-9 3-13.8c-.6-3.5-2.2-7-4.7-9.2a9.8 9.8 0 0 0-9.2-2.5c-2 .6-3.9 2-6 2.5-3 .7-6.3-.7-9.5-.6-5.8.2-10.5 5.5-13.3 11-1.6 3.4-3 7-3 11a13 13 0 0 0 4.2 10 32 32 0 0 0 10.6 5.6c3.6.4 5.2-1.8 7.7.7a6.7 6.7 0 0 1 1.9 6.1 8 8 0 0 1-2.1 3.5zm290.3-.2a3.1 3.1 0 0 1-5 0c-1-1.5-2.2-2.8-3.5-4-2.3-2.4-5.5-4-8.6-3.3-3.4.7-5.4 1.7-7 5a20 20 0 0 0 3 18.8c4 5 9.6 8.2 14.8 5 1-.5 2-1.3 3-1.7a9 9 0 0 1 4 0c5.7.6 12.4 3.2 18.1-.2 6-3.5 7.8-7.5 8.8-14.6 1-5.6-1-11.6-2-14.7-1.4-4.5-7-8.1-11.2-9.3-2.8-.7-5.8-2.2-8.6-2.6s-6 0-6.5-3.2c-.4-2 .8-4.3 2.6-5.2s4-.2 5.2 1.5c.6 1 1 2.1 1.5 3.1 2.2 4.3 8.5 4.4 11.8 1 3.3-3.3 4-9 3-13.7-.7-3.5-2.3-6.8-4.8-9s-6-3.6-9.2-2.7c-2 .6-3.8 2-6 2.5-3 .8-6.3-.7-9.5-.6-5.8.3-10.4 5.5-13.2 11-1.7 3.4-3 7-3 10.9 0 3.8 1.3 7.8 4.2 10a32 32 0 0 0 10.5 5.7c3.6.5 5.2-1.8 7.8.7a6.7 6.7 0 0 1 1.8 6.1 8 8 0 0 1-2 3.6zM187.6 67.6c-.5-1.3-1.3-2.4-1.8-3.7-2.3-5-1.3-10.8-1-16.4.6-5.8.4-11.8-1.5-17.4a24.2 24.2 0 0 0-10.7-13.5c-8.4-4.8-19.8-2.3-26.7 4.5a33.2 33.2 0 0 0-8.6 26.8c.4 5 1 11-1.5 15.7a15.6 15.6 0 0 0-.6 14.5 13 13 0 0 0 15.5 7.2c6-2 9.6-9.3 7.2-15-.8-1.9-2-3.7-1.7-5.6.5-2.7 4.3-3.8 6.7-2.4s3.5 4.2 3.8 7c.5 4.5-1.5 6.8-1.3 8.8.2 1.2 1 4 1.7 4.9 2.5 2.7 6.3 4 10 3.7s7-2.4 9-5.5a16 16 0 0 0 2.2-8c0-2 0-3.8-.7-5.6zM169.2 41c0 .2-.3.4-.5.4a25 25 0 0 1-5.2 1.4c-.7 1.7-1.5 3.4-2.6 5-.4.5-.9 1-1.5 1-.6-.2-.8-.9-1-1.4l-1-4.4c-2.5-.5-4.8-1.8-6.5-3.6 2-1.4 4.3-2.4 6.7-2.8A27 27 0 0 1 160 29c.5-.3 1 .4 1.2 1l1.2 3c1.1 3.2 1 4.4 1.8 5l2.8.7c1 .2 1.9.7 2.2 1.6v.6zm125.7-3.7c-2.9 2.3.3 11.5 1.2 15 1.2 4.2 2.6 8.5 4.3 12.7 1 2.2 2 8.7 1.8 11-.2 3.5-2.7 6.5-6 8s-6.8 2-10.5 2c-3.3 0-6.6-.3-9.8-1-1.6-.2-3.3-.6-4.7-1.4a10.7 10.7 0 0 1-4.4-6c-1.5-4.6-1-13.6.3-18.2s3-9.1 4-13.7c.7-2.8.7-6.4-2-7.8-3-1.6-6.8 1-10.3.7-2.8-.3-5-2.5-6.7-4.7-2.2-2.9-4-6.2-4.5-9.7s.5-4.3 3.2-6.8c3.3-3 8.3-3.7 13-4 8.4-.5 17-.7 25.5-.4 6.7.2 13.6.7 19.8 3.2 1.3.6 2.7 1 3.7 2 1.6 1.6 2.4 2 2.8 3 1 2 .7 6 .2 9-.3 2-1 4.4-3 5.6-4.7 2.8-13-2.3-18 1.6zm-211 89.9c.8-2.3 1.7-4.5 2-7s0-4.9-1.6-6.8A10.4 10.4 0 0 0 79 110a14 14 0 0 0-5.6-.7c-4.5.5-8.3 3.6-10.5 7.5s-3 8.3-3.7 12.8c-1.5 12-1 24.3 3 35.6.7 2 1.5 4 2.7 5.8 3.3 4.7 9.1 7 14.8 8.2 8 1.7 23.8 2.4 28-4.6 6.5-10.7 8.3-27.6 7.3-42.4-.3-4-1.4-10.5-3.7-13.8s-5.7-6.2-9.7-7.4c-2.3-.7-5-.8-7 .6-2 1.5-2.8 4.2-3.2 6.7-.9 5.2-1 10.6-.1 16 .6 4.1 1.8 8.5.3 12.5-.8 2.2-3 4.3-5.2 4-2.4-.2-4-2.7-4.2-5s.2-4.8 0-7.2l1.7-11.3zm38-12.4c-2.6 13.8-1.3 37.5.1 55.5.2 3.2.7 6.9 3.3 8.8 1.6 1.2 3.7 1.5 5.7 1.7 3 .2 6 .2 9 0 2.3-.2 4.7-.6 6.6-2 2.8-2 3.7-6 2.8-9.4-1-3.4-3.3-6.2-6-8.5-1.6-1.2-3.2-2.4-4.4-4s-1.8-3.8-1-5.6c2.8-6 7.3-1.5 12 7.7a45 45 0 0 0 22.6 18.6c2.7 1 5.8 2 8.6 1 4.4-1.4 6.5-6.4 7.2-11a74 74 0 0 0 0-20.5c-1-10.3-1.5-22.6-3.7-32.7-.8-3.5-2.5-3.9-5.3-5.5s-14-4-18 2.4c-3 4.7 1.3 16.6 3.3 21.3.8 1.7 1.8 3.4 2.2 5.3s.4 4-.8 5.4-3.6 2-5 .8c-.7-.6-1-1.5-1.4-2.3-1.4-3.7 0-6.7-1.4-10.5-2-4.5-4.7-15.2-7.5-19.1s-10-4.3-13.5-4.5c-4.8-.1-14-1.1-15.5 7.1zm139-5.1c-6.6 5.3-2.8 42.2-2.2 62.8 0 2 .2 4 1.3 5.7 2.3 3.7 7.7 3.8 12.2 3.3a22 22 0 0 0 11-3.5c4.8-3.8 5.6-10.5 4.4-16.3s-3.9-11.2-4.8-17c-.7-4.5-.3-9-.5-13.6-.2-4.5-.4-15-1.7-19.4-1.2-4.3-14.8-6-19.7-2zM375.7 129a6 6 0 0 0-7 6c.3 6 9.3 1.7 14.2 2.3s10.5 5 8.1 9.9a6 6 0 0 1-2.5 2.5c-4.2 2.4-9.2 1-13.5 2.5-3 1-5.4 4.2-4.3 7 4.3 2.6 9.7 1.6 14.7 1.2 5.5-.4 12.1.7 13.8 6.3 1 2.8 0 5.8-1.8 8.1-3.9 4.7-9.9 3.2-15.6 3.8-7.3.8-18.5 1.2-25-2.2h-.2a8.6 8.6 0 0 1-4.4-6 191 191 0 0 1-4.7-36.6c.3-5.9 1-12.2 4.6-16.8 3.6-4.6 11.8-7.2 17.6-8.4 5.7-1.3 12-1.8 17.4.7s12.1 10.4 6.6 16.6c-1 1.3-6.7 4.3-18 3zm-123 31.8a18.7 18.7 0 0 0-8-14.4c-.6-.4-1.3-.8-1.6-1.4-.2-.6 0-1.2 0-1.8 1.2-4.6 3.2-9 4.4-13.5 1-4.6 1.1-9.8-1.5-13.8-1.5-2.3-3.8-4-6.1-5.5-5.8-3.6-13.8-4-20.6-4.7-7-.7-16.5-.3-22.7 8-9.4 12.7.4 29.2-1.4 45.2-.4 4 .4 8 .7 12.1.2 2.7.7 5.7 2.8 7.2 1.5 1.1 3.5 1.2 5.3 1.2 3-.2 6-.7 8.9-1.6a8.4 8.4 0 0 0 4.3-2.5c1.6-2 1.2-5 .5-7.6-.7-2.5-1.6-5-1-7.6.1-.7.4-1.4 1-1.8 2.4-2 9.4 1.4 10.4 2.7.6 1 .7 2.2.7 3.3.2 4.5.9 9.4 4.2 12.4 4 3.7 12.1 6 16 2.3 4-3.8 4.2-12.8 3.7-18.2zM230.3 129c-1 1-2 1.7-3.3 2.2-.7.3-1.5.6-2 1.1-.6.6-.8 1.6-1 2.4-.6 1.8-1.5 3.5-2.6 5-.2.1-.3.3-.6.3l-.6-.3a11 11 0 0 1-3.2-5.8l-5.4-1.4c-.6-.2-1.1-.3-1.5-.8-1-1 0-2.6 1-3.5 1.5-1.2 3.4-2 5.7-3 .5-2.3 1.3-4.6 2.2-6.8.3-.7 1-1.6 1.7-1.4.5.2.7.7 1 1 .8 2.6 1.3 5 1.3 7.7 2.5-.4 5 0 7.3 1.1.2.2.5.3.6.6.3.5 0 1.2-.6 1.6z"/><path fill="#ebe9db" d="M105.2 45.5c-.9-5-1.7-10.3.3-15 1.2-3 3.5-5.4 5-8.3 2.7-5.6 2-13-2.7-17.2A18 18 0 0 0 96 1c-3.5 0-7 .5-10 2.4a15 15 0 0 0-5.2 6.5c-2 4.5-2.2 9.7-.7 14.3.8 2.6 2 5 2.6 7.6.9 4.8-1 9.7-2.3 14.4-1.3 4.5-2 9.2-2.4 14-.2 3.4 0 7 1.8 9.9 3.1 4.6 9.8 5.3 15.3 4 5.5-1.1 10.8-3.6 16.4-3.8 4 0 8.4 1 12-1 3.6-2 4.9-6.6 5.3-10.8.5-3.4.5-7-1.2-10-2-3.6-6.4-5.5-10.5-5.6s-8.2 1.4-12 2.6zm114.3 6.2a3.1 3.1 0 0 1-5-.2c-1-1.4-2.1-2.7-3.4-4-2.3-2.3-5.5-3.8-8.6-3.2-3.4.7-6 3.7-7.4 7-2.5 6-2 13.4 2 18.3s11 6.7 16 3.6c1-.6 2-1.4 3.2-1.8a9 9 0 0 1 4 0c5.6.6 12.4 3.2 18-.2 6-3.5 7.9-7.5 9-14.6.8-5.6-1-11.6-2-14.6-1.5-4.6-7-8.2-11.3-9.4-2.8-.7-5.8-2.2-8.7-2.6s-6-.1-6.4-3.2c-.4-2 .8-4.3 2.5-5.2s4.1-.2 5.3 1.5c.6 1 1 2.1 1.4 3.1 2.3 4.3 8.5 4.4 11.9 1s4-9 3-13.7c-.7-3.5-2.3-6.8-4.8-9a9.8 9.8 0 0 0-9.2-2.7c-2 .6-3.8 2-6 2.5-3 .8-6.3-.7-9.5-.6-5.8.3-10.4 5.5-13.2 11-1.7 3.4-3 7-3 11 0 3.7 1.3 7.7 4.2 10a32 32 0 0 0 10.5 5.6c3.6.5 5.2-1.8 7.8.7a6.7 6.7 0 0 1 1.8 6 8 8 0 0 1-2 3.7zM27 145.5a3.1 3.1 0 0 1-5.1-.1c-1-1.4-2.2-2.7-3.4-4-2.4-2.3-5.6-3.8-8.7-3.2-3.3.7-5.9 3.7-7.3 7a18.7 18.7 0 0 0 2 18.3c3.8 5 11 6.7 16.1 3.5 1-.6 2-1.3 3-1.7 1.4-.4 2.8-.3 4.1 0 5.6.6 12.4 3.2 18-.2 6-3.5 7.8-7.5 8.9-14.6a33 33 0 0 0-2-14.7c-1.4-4.5-7-8.1-11.3-9.3-2.8-.8-5.7-2.2-8.6-2.6s-6 0-6.5-3.2c-.3-2.1.8-4.4 2.6-5.2s4-.2 5.2 1.5c.7 1 1 2 1.5 3 2.3 4.4 8.5 4.5 11.8 1s4-8.8 3-13.6c-.6-3.5-2.2-6.8-4.7-9.2a9.8 9.8 0 0 0-9.2-2.5c-2 .6-3.9 2-6 2.5-3 .7-6.3-.7-9.5-.6-5.8.2-10.5 5.5-13.3 11-1.6 3.4-3 7-3 10.9 0 3.8 1.4 7.8 4.2 10a32 32 0 0 0 10.6 5.7c3.6.5 5.2-1.8 7.7.7A6.7 6.7 0 0 1 29 142a8 8 0 0 1-2.1 3.5zm290.3 0a3.1 3.1 0 0 1-5-.2c-1-1.4-2.2-2.6-3.5-4-2.3-2.3-5.5-3.8-8.6-3.2-3.4.7-5.4 1.7-7 5a20 20 0 0 0 3 18.8c4 5 9.6 8.2 14.8 5 1-.5 2-1.3 3-1.7a9 9 0 0 1 4 0c5.7.6 12.4 3.2 18.1 0 6-3.7 7.8-7.7 8.8-14.8 1-5.6-1-11.6-2-14.6-1.4-4.5-7-8.2-11.2-9.4-2.8-.7-5.8-2.2-8.6-2.6s-6 0-6.5-3.2c-.4-2 .8-4.3 2.6-5.2s4 0 5.2 1.6l1.5 3c2.2 4.3 8.5 4.5 11.8 1 3.3-3.3 4-9 3-13.7-.7-3.5-2.3-6.8-4.8-9.1s-6-3.5-9.2-2.5c-2 .6-3.8 2-6 2.4-3 .8-6.3-.7-9.5-.5-5.8.2-10.4 5.4-13.2 11a24 24 0 0 0-3 10.8c0 3.8 1.3 7.8 4.2 10a32 32 0 0 0 10.5 5.7c3.6.5 5.2-1.8 7.8.8a6.7 6.7 0 0 1 1.8 6 8 8 0 0 1-2 3.6zM187.6 56l-1.8-3.6c-2.3-5-1.3-11-1-16.4a43 43 0 0 0-1.5-17.5A24.2 24.2 0 0 0 172.6 5C164.2.3 152.8 2.7 146 9.5a33.2 33.2 0 0 0-8.6 26.8c.4 5 1 11-1.5 15.7a15.6 15.6 0 0 0-.6 14.5c2.5 5.8 9.5 9.2 15.5 7.3 6-2 9.6-9.3 7.2-15-.8-1.9-2-3.7-1.7-5.7.5-2.7 4.3-3.8 6.7-2.4s3.5 4.2 3.8 7c.5 4.5-1.5 6.8-1.3 8.8.2 1.2 1 4 1.7 5a12.3 12.3 0 0 0 19-1.8c1.5-2.4 2.1-5.3 2.2-8.1.1-1.9 0-3.8-.7-5.6zm-18.4-26.6c0 .3-.3.4-.5.5a33 33 0 0 1-5.2 1.3c-.7 1.8-1.5 3.5-2.6 5-.4.5-.9 1-1.5 1-.6-.2-.8-1-1-1.4l-1-4.4c-2.5-.5-4.8-1.8-6.5-3.6 2-1.4 4.3-2.4 6.7-2.8a27 27 0 0 1 2.4-7.5c.5-.3 1 .4 1.2 1l1.2 3c1.1 3.2 1 4.4 1.8 4.9.8.4 1.8.5 2.8.8 1 .2 1.9.7 2.2 1.7v.5zm125.7-3.6c-2.9 2.2.3 11.4 1.2 14.8 1.2 4.4 2.6 8.6 4.3 12.8 1 2.3 2 8.7 1.8 11.1-.2 3.4-2.7 6.4-6 8s-6.8 2-10.5 2a46 46 0 0 1-14.5-2.5 10.7 10.7 0 0 1-4.4-6c-1.5-4.5-1-13.6.3-18.2s3-9 4-13.7c.7-2.8.7-6.4-2-7.8-3-1.6-6.8 1-10.3.7-2.8-.3-5-2.5-6.7-4.6-2.2-3-4-6.2-4.5-9.8s.5-4.2 3.2-6.8c3.3-3 8.3-3.6 13-4 8.4-.5 17-.7 25.5-.4 6.7.2 13.6.7 19.8 3.3 1.3.5 2.7 1 3.7 2 1.6 1.5 2.4 2 2.8 2.8 1 2 .7 6 .2 9-.3 2.2-1 4.5-3 5.7-4.7 2.8-13-2.2-18 1.6zm-211 89.8c.8-2.2 1.7-4.5 2-7s0-5-1.6-6.8a10.4 10.4 0 0 0-5.4-3.5 14 14 0 0 0-5.6-.6c-4.5.4-8.3 3.6-10.5 7.4s-3 8.4-3.7 12.8c-1.5 12-1 24.3 3 35.7.7 2 1.5 4 2.7 5.7 3.3 4.7 9.1 7 14.8 8.2 8 1.8 23.8 2.4 28-4.5 6.5-10.8 8.3-27.6 7.3-42.5-.3-4-1.4-10.4-3.7-13.8s-5.7-6.2-9.7-7.4c-2.3-.7-5-.8-7 .7s-2.8 4-3.2 6.6c-.9 5.3-1 10.7-.1 16 .6 4 1.8 8.5.3 12.5-.8 2.3-3 4.3-5.2 4-2.4-.2-4-2.7-4.2-5s.2-4.8 0-7.2l1.7-11.3zm38-12.3c-2.6 13.7-1.3 37.4.1 55.4.2 3.3.7 7 3.3 8.8 1.6 1.2 3.7 1.5 5.7 1.7 3 .2 6 .2 9 0 2.3-.2 4.7-.6 6.6-2 2.8-2 3.7-6 2.8-9.4-1-3.4-3.3-6.2-6-8.5-1.6-1.2-3.2-2.4-4.4-4s-1.8-3.8-1-5.6c2.8-6 7.3-1.5 12 7.7a45 45 0 0 0 22.6 18.6c2.7 1.1 5.8 2 8.6 1 4.4-1.3 6.5-6.4 7.2-11a74 74 0 0 0 0-20.5c-1-10.3-1.5-22.6-3.7-32.7-.8-3.4-2.5-3.9-5.3-5.5s-14-4-18 2.4c-3 4.7 1.3 16.6 3.3 21.3.8 1.7 1.8 3.4 2.2 5.3s.4 4-.8 5.4-3.6 2-5 .8c-.7-.6-1-1.4-1.4-2.3-1.4-3.7 0-6.7-1.4-10.5-2-4.5-4.7-15.2-7.5-19.1s-10-4.3-13.5-4.4c-4.8-.2-14-1.2-15.5 7zm139-5.3c-6.6 5.4-2.8 42.3-2.2 63 0 1.9.2 4 1.3 5.6 2.3 3.7 7.7 3.8 12.2 3.3a22 22 0 0 0 11-3.5c4.8-3.8 5.6-10.5 4.4-16.3s-3.9-11.2-4.8-17c-.7-4.5-.3-9-.5-13.6-.2-4.5-.4-15-1.7-19.3-1.2-4.3-14.8-6-19.7-2.1zm114.8 19.4c-3.6-.4-7 2.4-7 6 .3 6 9.3 1.7 14.2 2.3s10.5 5.1 8.1 10c-.5 1-1.5 2-2.5 2.5-4.2 2.3-9.2.8-13.5 2.4-3 1-5.4 4.2-4.3 7 4.3 2.6 9.7 1.6 14.7 1.2 5.5-.4 12.1.7 13.8 6.3a9 9 0 0 1-1.8 8.2c-3.9 4.7-9.9 3-15.6 3.7-7.3.8-18.5 1.2-25-2.2h-.2a8.6 8.6 0 0 1-4.4-6 191 191 0 0 1-4.7-36.6c.3-5.9 1-12.1 4.6-16.8 3.6-4.6 11.8-7.2 17.6-8.4 5.7-1.2 12-1.7 17.4.7s12.1 10.4 6.6 16.7c-1 1.2-6.7 4.3-18 3zm-123 32a18.7 18.7 0 0 0-8-14.6c-.6-.4-1.3-.7-1.6-1.4-.2-.5 0-1.2 0-1.8 1.2-4.6 3.2-9 4.4-13.5 1-4.6 1.1-9.8-1.5-13.7a19 19 0 0 0-6.1-5.5c-5.8-3.7-13.8-4-20.6-4.8-7-.6-16.5-.3-22.7 8-9.4 12.7.4 29.3-1.4 45.3-.4 4 .4 8 .7 12 .2 2.7.7 5.7 2.8 7.3a8 8 0 0 0 5.3 1c3 0 6-.6 8.9-1.5a8.4 8.4 0 0 0 4.3-2.5c1.6-2 1.2-5 .5-7.5-.7-2.6-1.6-5.2-1-7.7.1-.7.4-1.4 1-1.8 2.4-1.8 9.4 1.4 10.4 2.8.6.9.7 2.1.7 3.2.2 4.5.9 9.4 4.2 12.5 4 3.6 12.1 6 16 2.2 4-3.8 4.2-12.7 3.7-18.2zm-22.4-31.9c-1 1-2 1.6-3.3 2-.7.4-1.5.7-2 1.2-.6.7-.8 1.6-1 2.5-.6 1.7-1.5 3.4-2.6 5l-.6.3c-.2 0-.4-.2-.6-.4a11 11 0 0 1-3.2-5.8l-5.4-1.4c-.6-.2-1.1-.3-1.5-.7-1-1 0-2.7 1-3.5 1.5-1.3 3.4-2.2 5.7-3.1.5-2.3 1.3-4.6 2.2-6.8.3-.7 1-1.6 1.7-1.4.5.2.7.7 1 1.2.8 2.4 1.3 5 1.3 7.5 2.5-.3 5 0 7.3 1.2.2.1.5.2.6.5.3.6 0 1.2-.6 1.6z"/></g></svg>