<?xml version="1.0" encoding="UTF-8"?>
<svg id="Layer_2" data-name="Layer 2" xmlns="http://www.w3.org/2000/svg" xmlns:xlink="http://www.w3.org/1999/xlink" viewBox="0 0 1538.16 681.6">
  <defs>
    <style>
      .cls-1 {
        fill: #f0ddb0;
        stroke: #5c4945;
      }

      .cls-1, .cls-2 {
        stroke-miterlimit: 10;
        stroke-width: 2px;
      }

      .cls-2 {
        fill: url(#radial-gradient);
        stroke: url(#New_Gradient_Swatch_copy_2);
      }
    </style>
    <radialGradient id="radial-gradient" cx="769.08" cy="340.8" fx="769.08" fy="340.8" r="593.89" gradientUnits="userSpaceOnUse">
      <stop offset="0" stop-color="#f0ddb0" stop-opacity=".5"/>
      <stop offset=".31" stop-color="#f0d29d" stop-opacity=".33"/>
      <stop offset=".57" stop-color="#f0ca8f" stop-opacity=".2"/>
      <stop offset=".72" stop-color="#a99c99" stop-opacity=".11"/>
      <stop offset=".88" stop-color="#6c73a1" stop-opacity=".03"/>
      <stop offset="1" stop-color="#5665a5" stop-opacity="0"/>
    </radialGradient>
    <radialGradient id="New_Gradient_Swatch_copy_2" data-name="New Gradient Swatch copy 2" cx="769.08" cy="340.8" fx="769.08" fy="340.8" r="594.82" gradientUnits="userSpaceOnUse">
      <stop offset="0" stop-color="#f0ddb0"/>
      <stop offset=".11" stop-color="#f0ddb0" stop-opacity=".92"/>
      <stop offset=".34" stop-color="#f0ddb0" stop-opacity=".71"/>
      <stop offset=".67" stop-color="#f0ddb0" stop-opacity=".37"/>
      <stop offset="1" stop-color="#f0ddb0" stop-opacity="0"/>
    </radialGradient>
  </defs>
  <g id="Layer_5" data-name="Layer 5">
    <path class="cls-2" d="M1537.16,193.44v163.28c0,12.74-11.62,22.32-24.13,19.9l-490.65-53.08c-10.38-2.01-70.32-5.36-73.13,4.83-.06.2-.12.41-.17.62-2.88,10.32,58.98,21.16,69.11,24.66l474.67,98.24c12.05,4.15,17.32,18.26,10.95,29.3l-81.64,141.4c-6.37,11.03-21.22,13.52-30.85,5.17l-422.92-188.32c-7.99-6.94-80.23-41.47-87.76-34.03-.11.11-.22.22-.33.33-7.63,7.51,42.74,67.24,49.75,75.32l172.29,198.47c.3.35.59.71.86,1.07h-211.4l-51.26-148.55c-3.46-10.04-30.04-86.24-40.31-83.52-.12.03-.24.06-.36.1-10.32,2.72-.79,83.51,1.24,93.98l26.73,137.99h-156.35l26.73-137.99c2.02-10.47,10.85-82.83.54-85.55-.13-.04-.25-.07-.37-.1-10.26-2.73-36.14,65.05-39.61,75.08l-51.26,148.56h-211.4c.27-.36.56-.72.86-1.07l172.29-198.47c7.02-8.08,48.26-47.9,40.64-55.41-.11-.11-.22-.22-.33-.33-7.53-7.44-61.24,19.88-69.24,26.81l-393.53,172.3c-9.62,8.35-24.47,5.86-30.84-5.18l-81.64-141.4c-6.37-11.03-1.1-25.14,10.94-29.3l442.34-85.32c10.13-3.5,71.73-24.68,68.86-35.01-.06-.2-.12-.41-.17-.61-2.81-10.19-68.96-6.08-79.33-4.07L25.12,373.28c-12.51,2.43-24.12-7.16-24.12-19.9v-163.27c0-12.75,11.61-22.33,24.12-19.91l450.53,49.48c10.52,2.04,81.64,5.76,84.3-4.62.07-.27.13-.54.2-.81,2.66-10.23-63.84-31-73.83-34.44L45.29,94.93c-12.04-4.15-17.31-18.26-10.94-29.3L71.67,1h263.65l202.23,87.91c8.08,7.02,73.37,42.53,80.87,34.9.24-.24.47-.48.7-.71,7.45-7.52-45.34-55.5-52.27-63.49L515.97,1h139.23l1.94,5.63c3.48,10.08,30.6,68.71,40.88,65.91.36-.09.71-.19,1.06-.28,8.57-2.3-2.01-62.77-1.48-71.26h104.17c.53,8.49-9.2,68.2-.64,70.49.35.1.71.19,1.06.29,10.28,2.8,36.55-55.07,40.03-65.15l1.94-5.63h139.24l-50.88,58.61c-6.94,7.99-65.77,62.1-58.33,69.62.24.23.47.47.7.7,7.5,7.64,313.68-128.93,313.68-128.93h276l39.24,67.97c6.37,11.03,1.1,25.14-10.95,29.3l-479.82,81.54c-9.98,3.44-88.09,21.11-85.44,31.34.07.26.14.53.21.8,2.65,10.39,85.38,9.77,95.91,7.73l489.31-46.14c12.51-2.42,24.13,7.16,24.13,19.9Z"/>
    <path class="cls-1" d="M844.29,102.4c-.92-.75-4.84,2.82-6.44,4.31-7.59,6.97-33.18,48.32-43.6,53.11-27.21,13.25-34.07-95.93-39.61-114-5.26-18.3-9.31,99.4-26.09,112.12-11.39,9.51-25.78.32-35.42-7.79-5.94-4.91-31.32-36.81-36.35-41.37-4.47-3.96-5.52-3.39-4.39,2.5,2.64,13.39,28.04,56.46,24.23,70.35-7.66,23.53-65.68-1.45-82.3-4.65-11.33-2.73-.3,6.37,2.94,10.38,7.59,8.28,42.8,31.21,45.64,42.46,5.11,23.13-102.07,28.67-117.6,33.69-3.96,1.33-11.67,3.04-2.69,5.89,6.47,2.18,88.86,4.9,96.05,7.69,11.77,4.45,26.83,12.53,24.09,27.11-2.91,20.85-62.51,58.88-43.98,54.55,18.19-3.84,70.5-29.6,72.78,0,1.1,11.5-28.51,62.05-30.92,72.23-.55,2.17-1.68,7.23-.58,7.67.91.78,4.82-2.77,6.41-4.25,7.7-7.05,48.63-52.58,59.2-57.23,26.96-12.44,38.46,109.45,44,127.23,5.26,18.3,12.46-104.86,24.93-120.45,10.31-12.88,21.98-4.96,31.62,3.15,5.94,4.91,41.74,44.58,46.78,49.14,6.79,6.31,4.69-.82,3.83-5.22-3.19-15.95-43.87-81.34-21.18-88.14,11.2-3.01,47.82,10.92,58.75,13.5,5.13.89,18.39,6.04,10.5-2.49-10.85-12.89-60.46-45.82-43.63-63.95,10.26-10.1,96.78-20.38,109.75-24.61,5.66-1.89,5.69-3.09.04-5.05-6.47-2.18-25.02-1.71-32.21-4.51-11.77-4.45-84.99-8.15-82.25-22.73,2.9-20.84,68.04-62.97,49.51-58.65-18.55,3.94-81.4,32.52-83.21,2.21-.87-10.19,17.95-55.02,20.14-63.81.61-2.93,2.59-8.89,1.27-10.41h-.02Z"/>
  </g>
</svg>